<?xml version="1.0" encoding="utf-8"?>
<svg xmlns="http://www.w3.org/2000/svg" xmlns:xlink="http://www.w3.org/1999/xlink" width="600" height="400" viewBox="0 0 2400 1600">
<defs>
  <clipPath id="clip190">
    <rect x="0" y="0" width="2400" height="1600"/>
  </clipPath>
</defs>
<path clip-path="url(#clip190)" d="M0 1600 L2400 1600 L2400 0 L0 0  Z" fill="#ffffff" fill-rule="evenodd" fill-opacity="1"/>
<defs>
  <clipPath id="clip191">
    <rect x="480" y="0" width="1681" height="1600"/>
  </clipPath>
</defs>
<path clip-path="url(#clip190)" d="M175.445 1423.18 L2352.76 1423.18 L2352.76 123.472 L175.445 123.472  Z" fill="#ffffff" fill-rule="evenodd" fill-opacity="1"/>
<defs>
  <clipPath id="clip192">
    <rect x="175" y="123" width="2178" height="1301"/>
  </clipPath>
</defs>
<polyline clip-path="url(#clip192)" style="stroke:#000000; stroke-linecap:round; stroke-linejoin:round; stroke-width:2; stroke-opacity:0.1; fill:none" points="442.474,1423.18 442.474,123.472 "/>
<polyline clip-path="url(#clip192)" style="stroke:#000000; stroke-linecap:round; stroke-linejoin:round; stroke-width:2; stroke-opacity:0.1; fill:none" points="853.287,1423.18 853.287,123.472 "/>
<polyline clip-path="url(#clip192)" style="stroke:#000000; stroke-linecap:round; stroke-linejoin:round; stroke-width:2; stroke-opacity:0.1; fill:none" points="1264.1,1423.18 1264.1,123.472 "/>
<polyline clip-path="url(#clip192)" style="stroke:#000000; stroke-linecap:round; stroke-linejoin:round; stroke-width:2; stroke-opacity:0.1; fill:none" points="1674.91,1423.18 1674.91,123.472 "/>
<polyline clip-path="url(#clip192)" style="stroke:#000000; stroke-linecap:round; stroke-linejoin:round; stroke-width:2; stroke-opacity:0.1; fill:none" points="2085.73,1423.18 2085.73,123.472 "/>
<polyline clip-path="url(#clip190)" style="stroke:#000000; stroke-linecap:round; stroke-linejoin:round; stroke-width:4; stroke-opacity:1; fill:none" points="175.445,1423.18 2352.76,1423.18 "/>
<polyline clip-path="url(#clip190)" style="stroke:#000000; stroke-linecap:round; stroke-linejoin:round; stroke-width:4; stroke-opacity:1; fill:none" points="442.474,1423.18 442.474,1404.28 "/>
<polyline clip-path="url(#clip190)" style="stroke:#000000; stroke-linecap:round; stroke-linejoin:round; stroke-width:4; stroke-opacity:1; fill:none" points="853.287,1423.18 853.287,1404.28 "/>
<polyline clip-path="url(#clip190)" style="stroke:#000000; stroke-linecap:round; stroke-linejoin:round; stroke-width:4; stroke-opacity:1; fill:none" points="1264.1,1423.18 1264.1,1404.28 "/>
<polyline clip-path="url(#clip190)" style="stroke:#000000; stroke-linecap:round; stroke-linejoin:round; stroke-width:4; stroke-opacity:1; fill:none" points="1674.91,1423.18 1674.91,1404.28 "/>
<polyline clip-path="url(#clip190)" style="stroke:#000000; stroke-linecap:round; stroke-linejoin:round; stroke-width:4; stroke-opacity:1; fill:none" points="2085.73,1423.18 2085.73,1404.28 "/>
<path clip-path="url(#clip190)" d="M388.759 1468.75 L418.435 1468.75 L418.435 1472.69 L388.759 1472.69 L388.759 1468.75 Z" fill="#000000" fill-rule="nonzero" fill-opacity="1" /><path clip-path="url(#clip190)" d="M438.527 1454.1 Q434.916 1454.1 433.087 1457.66 Q431.282 1461.2 431.282 1468.33 Q431.282 1475.44 433.087 1479.01 Q434.916 1482.55 438.527 1482.55 Q442.161 1482.55 443.967 1479.01 Q445.796 1475.44 445.796 1468.33 Q445.796 1461.2 443.967 1457.66 Q442.161 1454.1 438.527 1454.1 M438.527 1450.39 Q444.337 1450.39 447.393 1455 Q450.472 1459.58 450.472 1468.33 Q450.472 1477.06 447.393 1481.67 Q444.337 1486.25 438.527 1486.25 Q432.717 1486.25 429.638 1481.67 Q426.583 1477.06 426.583 1468.33 Q426.583 1459.58 429.638 1455 Q432.717 1450.39 438.527 1450.39 Z" fill="#000000" fill-rule="nonzero" fill-opacity="1" /><path clip-path="url(#clip190)" d="M458.689 1479.7 L463.573 1479.7 L463.573 1485.58 L458.689 1485.58 L458.689 1479.7 Z" fill="#000000" fill-rule="nonzero" fill-opacity="1" /><path clip-path="url(#clip190)" d="M486.606 1455.09 L474.8 1473.54 L486.606 1473.54 L486.606 1455.09 M485.379 1451.02 L491.258 1451.02 L491.258 1473.54 L496.189 1473.54 L496.189 1477.43 L491.258 1477.43 L491.258 1485.58 L486.606 1485.58 L486.606 1477.43 L471.004 1477.43 L471.004 1472.92 L485.379 1451.02 Z" fill="#000000" fill-rule="nonzero" fill-opacity="1" /><path clip-path="url(#clip190)" d="M800.614 1468.75 L830.29 1468.75 L830.29 1472.69 L800.614 1472.69 L800.614 1468.75 Z" fill="#000000" fill-rule="nonzero" fill-opacity="1" /><path clip-path="url(#clip190)" d="M850.382 1454.1 Q846.771 1454.1 844.942 1457.66 Q843.137 1461.2 843.137 1468.33 Q843.137 1475.44 844.942 1479.01 Q846.771 1482.55 850.382 1482.55 Q854.016 1482.55 855.822 1479.01 Q857.651 1475.44 857.651 1468.33 Q857.651 1461.2 855.822 1457.66 Q854.016 1454.1 850.382 1454.1 M850.382 1450.39 Q856.192 1450.39 859.248 1455 Q862.327 1459.58 862.327 1468.33 Q862.327 1477.06 859.248 1481.67 Q856.192 1486.25 850.382 1486.25 Q844.572 1486.25 841.493 1481.67 Q838.438 1477.06 838.438 1468.33 Q838.438 1459.58 841.493 1455 Q844.572 1450.39 850.382 1450.39 Z" fill="#000000" fill-rule="nonzero" fill-opacity="1" /><path clip-path="url(#clip190)" d="M870.544 1479.7 L875.428 1479.7 L875.428 1485.58 L870.544 1485.58 L870.544 1479.7 Z" fill="#000000" fill-rule="nonzero" fill-opacity="1" /><path clip-path="url(#clip190)" d="M889.641 1481.64 L905.961 1481.64 L905.961 1485.58 L884.016 1485.58 L884.016 1481.64 Q886.678 1478.89 891.262 1474.26 Q895.868 1469.61 897.049 1468.27 Q899.294 1465.74 900.174 1464.01 Q901.076 1462.25 901.076 1460.56 Q901.076 1457.8 899.132 1456.07 Q897.211 1454.33 894.109 1454.33 Q891.91 1454.33 889.456 1455.09 Q887.025 1455.86 884.248 1457.41 L884.248 1452.69 Q887.072 1451.55 889.525 1450.97 Q891.979 1450.39 894.016 1450.39 Q899.387 1450.39 902.581 1453.08 Q905.775 1455.77 905.775 1460.26 Q905.775 1462.39 904.965 1464.31 Q904.178 1466.2 902.072 1468.8 Q901.493 1469.47 898.391 1472.69 Q895.289 1475.88 889.641 1481.64 Z" fill="#000000" fill-rule="nonzero" fill-opacity="1" /><path clip-path="url(#clip190)" d="M1241.48 1454.1 Q1237.87 1454.1 1236.05 1457.66 Q1234.24 1461.2 1234.24 1468.33 Q1234.24 1475.44 1236.05 1479.01 Q1237.87 1482.55 1241.48 1482.55 Q1245.12 1482.55 1246.92 1479.01 Q1248.75 1475.44 1248.75 1468.33 Q1248.75 1461.2 1246.92 1457.66 Q1245.12 1454.1 1241.48 1454.1 M1241.48 1450.39 Q1247.3 1450.39 1250.35 1455 Q1253.43 1459.58 1253.43 1468.33 Q1253.43 1477.06 1250.35 1481.67 Q1247.3 1486.25 1241.48 1486.25 Q1235.67 1486.25 1232.6 1481.67 Q1229.54 1477.06 1229.54 1468.33 Q1229.54 1459.58 1232.6 1455 Q1235.67 1450.39 1241.48 1450.39 Z" fill="#000000" fill-rule="nonzero" fill-opacity="1" /><path clip-path="url(#clip190)" d="M1261.65 1479.7 L1266.53 1479.7 L1266.53 1485.58 L1261.65 1485.58 L1261.65 1479.7 Z" fill="#000000" fill-rule="nonzero" fill-opacity="1" /><path clip-path="url(#clip190)" d="M1286.72 1454.1 Q1283.11 1454.1 1281.28 1457.66 Q1279.47 1461.2 1279.47 1468.33 Q1279.47 1475.44 1281.28 1479.01 Q1283.11 1482.55 1286.72 1482.55 Q1290.35 1482.55 1292.16 1479.01 Q1293.98 1475.44 1293.98 1468.33 Q1293.98 1461.2 1292.16 1457.66 Q1290.35 1454.1 1286.72 1454.1 M1286.72 1450.39 Q1292.53 1450.39 1295.58 1455 Q1298.66 1459.58 1298.66 1468.33 Q1298.66 1477.06 1295.58 1481.67 Q1292.53 1486.25 1286.72 1486.25 Q1280.91 1486.25 1277.83 1481.67 Q1274.77 1477.06 1274.77 1468.33 Q1274.77 1459.58 1277.83 1455 Q1280.91 1450.39 1286.72 1450.39 Z" fill="#000000" fill-rule="nonzero" fill-opacity="1" /><path clip-path="url(#clip190)" d="M1653.1 1454.1 Q1649.49 1454.1 1647.66 1457.66 Q1645.85 1461.2 1645.85 1468.33 Q1645.85 1475.44 1647.66 1479.01 Q1649.49 1482.55 1653.1 1482.55 Q1656.73 1482.55 1658.54 1479.01 Q1660.37 1475.44 1660.37 1468.33 Q1660.37 1461.2 1658.54 1457.66 Q1656.73 1454.1 1653.1 1454.1 M1653.1 1450.39 Q1658.91 1450.39 1661.96 1455 Q1665.04 1459.58 1665.04 1468.33 Q1665.04 1477.06 1661.96 1481.67 Q1658.91 1486.25 1653.1 1486.25 Q1647.29 1486.25 1644.21 1481.67 Q1641.15 1477.06 1641.15 1468.33 Q1641.15 1459.58 1644.21 1455 Q1647.29 1450.39 1653.1 1450.39 Z" fill="#000000" fill-rule="nonzero" fill-opacity="1" /><path clip-path="url(#clip190)" d="M1673.26 1479.7 L1678.14 1479.7 L1678.14 1485.58 L1673.26 1485.58 L1673.26 1479.7 Z" fill="#000000" fill-rule="nonzero" fill-opacity="1" /><path clip-path="url(#clip190)" d="M1692.36 1481.64 L1708.68 1481.64 L1708.68 1485.58 L1686.73 1485.58 L1686.73 1481.64 Q1689.39 1478.89 1693.98 1474.26 Q1698.58 1469.61 1699.76 1468.27 Q1702.01 1465.74 1702.89 1464.01 Q1703.79 1462.25 1703.79 1460.56 Q1703.79 1457.8 1701.85 1456.07 Q1699.93 1454.33 1696.82 1454.33 Q1694.62 1454.33 1692.17 1455.09 Q1689.74 1455.86 1686.96 1457.41 L1686.96 1452.69 Q1689.79 1451.55 1692.24 1450.97 Q1694.69 1450.39 1696.73 1450.39 Q1702.1 1450.39 1705.3 1453.08 Q1708.49 1455.77 1708.49 1460.26 Q1708.49 1462.39 1707.68 1464.31 Q1706.89 1466.2 1704.79 1468.8 Q1704.21 1469.47 1701.11 1472.69 Q1698 1475.88 1692.36 1481.64 Z" fill="#000000" fill-rule="nonzero" fill-opacity="1" /><path clip-path="url(#clip190)" d="M2062.87 1454.1 Q2059.26 1454.1 2057.43 1457.66 Q2055.62 1461.2 2055.62 1468.33 Q2055.62 1475.44 2057.43 1479.01 Q2059.26 1482.55 2062.87 1482.55 Q2066.5 1482.55 2068.31 1479.01 Q2070.14 1475.44 2070.14 1468.33 Q2070.14 1461.2 2068.31 1457.66 Q2066.5 1454.1 2062.87 1454.1 M2062.87 1450.39 Q2068.68 1450.39 2071.73 1455 Q2074.81 1459.58 2074.81 1468.33 Q2074.81 1477.06 2071.73 1481.67 Q2068.68 1486.25 2062.87 1486.25 Q2057.06 1486.25 2053.98 1481.67 Q2050.92 1477.06 2050.92 1468.33 Q2050.92 1459.58 2053.98 1455 Q2057.06 1450.39 2062.87 1450.39 Z" fill="#000000" fill-rule="nonzero" fill-opacity="1" /><path clip-path="url(#clip190)" d="M2083.03 1479.7 L2087.91 1479.7 L2087.91 1485.58 L2083.03 1485.58 L2083.03 1479.7 Z" fill="#000000" fill-rule="nonzero" fill-opacity="1" /><path clip-path="url(#clip190)" d="M2110.95 1455.09 L2099.14 1473.54 L2110.95 1473.54 L2110.95 1455.09 M2109.72 1451.02 L2115.6 1451.02 L2115.6 1473.54 L2120.53 1473.54 L2120.53 1477.43 L2115.6 1477.43 L2115.6 1485.58 L2110.95 1485.58 L2110.95 1477.43 L2095.35 1477.43 L2095.35 1472.92 L2109.72 1451.02 Z" fill="#000000" fill-rule="nonzero" fill-opacity="1" /><path clip-path="url(#clip190)" d="M1274.22 1545.45 L1253.95 1545.45 Q1254.42 1554.96 1256.62 1559 Q1259.36 1563.97 1264.1 1563.97 Q1268.87 1563.97 1271.52 1558.97 Q1273.84 1554.58 1274.22 1545.45 M1274.13 1540.03 Q1273.24 1531 1271.52 1527.81 Q1268.78 1522.78 1264.1 1522.78 Q1259.23 1522.78 1256.65 1527.75 Q1254.62 1531.76 1254.01 1540.03 L1274.13 1540.03 M1264.1 1518.01 Q1271.74 1518.01 1276.1 1524.76 Q1280.46 1531.47 1280.46 1543.38 Q1280.46 1555.25 1276.1 1562 Q1271.74 1568.78 1264.1 1568.78 Q1256.43 1568.78 1252.1 1562 Q1247.74 1555.25 1247.74 1543.38 Q1247.74 1531.47 1252.1 1524.76 Q1256.43 1518.01 1264.1 1518.01 Z" fill="#000000" fill-rule="nonzero" fill-opacity="1" /><polyline clip-path="url(#clip192)" style="stroke:#000000; stroke-linecap:round; stroke-linejoin:round; stroke-width:2; stroke-opacity:0.1; fill:none" points="175.445,1423.18 2352.76,1423.18 "/>
<polyline clip-path="url(#clip192)" style="stroke:#000000; stroke-linecap:round; stroke-linejoin:round; stroke-width:2; stroke-opacity:0.1; fill:none" points="175.445,1225.13 2352.76,1225.13 "/>
<polyline clip-path="url(#clip192)" style="stroke:#000000; stroke-linecap:round; stroke-linejoin:round; stroke-width:2; stroke-opacity:0.1; fill:none" points="175.445,1027.08 2352.76,1027.08 "/>
<polyline clip-path="url(#clip192)" style="stroke:#000000; stroke-linecap:round; stroke-linejoin:round; stroke-width:2; stroke-opacity:0.1; fill:none" points="175.445,829.033 2352.76,829.033 "/>
<polyline clip-path="url(#clip192)" style="stroke:#000000; stroke-linecap:round; stroke-linejoin:round; stroke-width:2; stroke-opacity:0.1; fill:none" points="175.445,630.984 2352.76,630.984 "/>
<polyline clip-path="url(#clip192)" style="stroke:#000000; stroke-linecap:round; stroke-linejoin:round; stroke-width:2; stroke-opacity:0.1; fill:none" points="175.445,432.936 2352.76,432.936 "/>
<polyline clip-path="url(#clip192)" style="stroke:#000000; stroke-linecap:round; stroke-linejoin:round; stroke-width:2; stroke-opacity:0.1; fill:none" points="175.445,234.887 2352.76,234.887 "/>
<polyline clip-path="url(#clip190)" style="stroke:#000000; stroke-linecap:round; stroke-linejoin:round; stroke-width:4; stroke-opacity:1; fill:none" points="175.445,1423.18 175.445,123.472 "/>
<polyline clip-path="url(#clip190)" style="stroke:#000000; stroke-linecap:round; stroke-linejoin:round; stroke-width:4; stroke-opacity:1; fill:none" points="175.445,1423.18 194.343,1423.18 "/>
<polyline clip-path="url(#clip190)" style="stroke:#000000; stroke-linecap:round; stroke-linejoin:round; stroke-width:4; stroke-opacity:1; fill:none" points="175.445,1225.13 194.343,1225.13 "/>
<polyline clip-path="url(#clip190)" style="stroke:#000000; stroke-linecap:round; stroke-linejoin:round; stroke-width:4; stroke-opacity:1; fill:none" points="175.445,1027.08 194.343,1027.08 "/>
<polyline clip-path="url(#clip190)" style="stroke:#000000; stroke-linecap:round; stroke-linejoin:round; stroke-width:4; stroke-opacity:1; fill:none" points="175.445,829.033 194.343,829.033 "/>
<polyline clip-path="url(#clip190)" style="stroke:#000000; stroke-linecap:round; stroke-linejoin:round; stroke-width:4; stroke-opacity:1; fill:none" points="175.445,630.984 194.343,630.984 "/>
<polyline clip-path="url(#clip190)" style="stroke:#000000; stroke-linecap:round; stroke-linejoin:round; stroke-width:4; stroke-opacity:1; fill:none" points="175.445,432.936 194.343,432.936 "/>
<polyline clip-path="url(#clip190)" style="stroke:#000000; stroke-linecap:round; stroke-linejoin:round; stroke-width:4; stroke-opacity:1; fill:none" points="175.445,234.887 194.343,234.887 "/>
<path clip-path="url(#clip190)" d="M127.501 1408.98 Q123.89 1408.98 122.061 1412.54 Q120.255 1416.08 120.255 1423.21 Q120.255 1430.32 122.061 1433.89 Q123.89 1437.43 127.501 1437.43 Q131.135 1437.43 132.941 1433.89 Q134.769 1430.32 134.769 1423.21 Q134.769 1416.08 132.941 1412.54 Q131.135 1408.98 127.501 1408.98 M127.501 1405.27 Q133.311 1405.27 136.367 1409.88 Q139.445 1414.46 139.445 1423.21 Q139.445 1431.94 136.367 1436.55 Q133.311 1441.13 127.501 1441.13 Q121.691 1441.13 118.612 1436.55 Q115.556 1431.94 115.556 1423.21 Q115.556 1414.46 118.612 1409.88 Q121.691 1405.27 127.501 1405.27 Z" fill="#000000" fill-rule="nonzero" fill-opacity="1" /><path clip-path="url(#clip190)" d="M119.538 1238.48 L127.177 1238.48 L127.177 1212.11 L118.867 1213.78 L118.867 1209.52 L127.13 1207.85 L131.806 1207.85 L131.806 1238.48 L139.445 1238.48 L139.445 1242.41 L119.538 1242.41 L119.538 1238.48 Z" fill="#000000" fill-rule="nonzero" fill-opacity="1" /><path clip-path="url(#clip190)" d="M123.126 1040.43 L139.445 1040.43 L139.445 1044.36 L117.501 1044.36 L117.501 1040.43 Q120.163 1037.67 124.746 1033.04 Q129.353 1028.39 130.533 1027.05 Q132.779 1024.52 133.658 1022.79 Q134.561 1021.03 134.561 1019.34 Q134.561 1016.58 132.617 1014.85 Q130.695 1013.11 127.593 1013.11 Q125.394 1013.11 122.941 1013.88 Q120.51 1014.64 117.732 1016.19 L117.732 1011.47 Q120.556 1010.33 123.01 1009.76 Q125.464 1009.18 127.501 1009.18 Q132.871 1009.18 136.066 1011.86 Q139.26 1014.55 139.26 1019.04 Q139.26 1021.17 138.45 1023.09 Q137.663 1024.99 135.556 1027.58 Q134.978 1028.25 131.876 1031.47 Q128.774 1034.66 123.126 1040.43 Z" fill="#000000" fill-rule="nonzero" fill-opacity="1" /><path clip-path="url(#clip190)" d="M132.316 827.679 Q135.672 828.397 137.547 830.665 Q139.445 832.934 139.445 836.267 Q139.445 841.383 135.927 844.184 Q132.408 846.985 125.927 846.985 Q123.751 846.985 121.436 846.545 Q119.144 846.128 116.691 845.272 L116.691 840.758 Q118.635 841.892 120.95 842.471 Q123.265 843.049 125.788 843.049 Q130.186 843.049 132.478 841.313 Q134.792 839.577 134.792 836.267 Q134.792 833.212 132.64 831.499 Q130.51 829.762 126.691 829.762 L122.663 829.762 L122.663 825.92 L126.876 825.92 Q130.325 825.92 132.154 824.554 Q133.982 823.165 133.982 820.573 Q133.982 817.911 132.084 816.499 Q130.209 815.063 126.691 815.063 Q124.769 815.063 122.57 815.48 Q120.371 815.897 117.732 816.776 L117.732 812.61 Q120.394 811.869 122.709 811.499 Q125.047 811.128 127.107 811.128 Q132.431 811.128 135.533 813.559 Q138.635 815.966 138.635 820.087 Q138.635 822.957 136.992 824.948 Q135.348 826.915 132.316 827.679 Z" fill="#000000" fill-rule="nonzero" fill-opacity="1" /><path clip-path="url(#clip190)" d="M129.862 617.779 L118.056 636.228 L129.862 636.228 L129.862 617.779 M128.635 613.704 L134.515 613.704 L134.515 636.228 L139.445 636.228 L139.445 640.116 L134.515 640.116 L134.515 648.264 L129.862 648.264 L129.862 640.116 L114.26 640.116 L114.26 635.603 L128.635 613.704 Z" fill="#000000" fill-rule="nonzero" fill-opacity="1" /><path clip-path="url(#clip190)" d="M118.543 415.656 L136.899 415.656 L136.899 419.591 L122.825 419.591 L122.825 428.063 Q123.843 427.716 124.862 427.554 Q125.88 427.369 126.899 427.369 Q132.686 427.369 136.066 430.54 Q139.445 433.711 139.445 439.128 Q139.445 444.706 135.973 447.808 Q132.501 450.887 126.181 450.887 Q124.005 450.887 121.737 450.517 Q119.492 450.146 117.084 449.405 L117.084 444.706 Q119.168 445.841 121.39 446.396 Q123.612 446.952 126.089 446.952 Q130.093 446.952 132.431 444.845 Q134.769 442.739 134.769 439.128 Q134.769 435.517 132.431 433.41 Q130.093 431.304 126.089 431.304 Q124.214 431.304 122.339 431.72 Q120.487 432.137 118.543 433.017 L118.543 415.656 Z" fill="#000000" fill-rule="nonzero" fill-opacity="1" /><path clip-path="url(#clip190)" d="M127.917 233.023 Q124.769 233.023 122.918 235.176 Q121.089 237.329 121.089 241.079 Q121.089 244.806 122.918 246.982 Q124.769 249.134 127.917 249.134 Q131.066 249.134 132.894 246.982 Q134.746 244.806 134.746 241.079 Q134.746 237.329 132.894 235.176 Q131.066 233.023 127.917 233.023 M137.2 218.371 L137.2 222.63 Q135.441 221.797 133.635 221.357 Q131.853 220.917 130.093 220.917 Q125.464 220.917 123.01 224.042 Q120.58 227.167 120.232 233.486 Q121.598 231.472 123.658 230.408 Q125.718 229.32 128.195 229.32 Q133.404 229.32 136.413 232.491 Q139.445 235.639 139.445 241.079 Q139.445 246.403 136.297 249.621 Q133.149 252.838 127.917 252.838 Q121.922 252.838 118.751 248.255 Q115.58 243.648 115.58 234.922 Q115.58 226.727 119.468 221.866 Q123.357 216.982 129.908 216.982 Q131.667 216.982 133.45 217.329 Q135.255 217.676 137.2 218.371 Z" fill="#000000" fill-rule="nonzero" fill-opacity="1" /><path clip-path="url(#clip190)" d="M21.7677 856.192 L39.6235 856.192 L39.6235 848.107 Q39.6235 843.619 37.3 841.169 Q34.9765 838.718 30.6797 838.718 Q26.4147 838.718 24.0912 841.169 Q21.7677 843.619 21.7677 848.107 L21.7677 856.192 M16.4842 862.621 L16.4842 848.107 Q16.4842 840.118 20.1126 836.044 Q23.7092 831.938 30.6797 831.938 Q37.7138 831.938 41.3104 836.044 Q44.907 840.118 44.907 848.107 L44.907 856.192 L64.0042 856.192 L64.0042 862.621 L16.4842 862.621 Z" fill="#000000" fill-rule="nonzero" fill-opacity="1" /><path clip-path="url(#clip190)" d="M14.5426 809.499 Q21.8632 813.764 29.0246 815.833 Q36.186 817.902 43.5384 817.902 Q50.8908 817.902 58.1159 815.833 Q65.3091 813.732 72.5979 809.499 L72.5979 814.592 Q65.1182 819.366 57.8931 821.753 Q50.668 824.108 43.5384 824.108 Q36.4406 824.108 29.2474 821.753 Q22.0542 819.398 14.5426 814.592 L14.5426 809.499 Z" fill="#000000" fill-rule="nonzero" fill-opacity="1" /><path clip-path="url(#clip190)" d="M41.4059 774.201 L41.4059 794.476 Q50.9226 793.999 54.9649 791.802 Q59.9301 789.065 59.9301 784.323 Q59.9301 779.548 54.933 776.907 Q50.5407 774.583 41.4059 774.201 M35.995 774.297 Q26.9557 775.188 23.7729 776.907 Q18.744 779.644 18.744 784.323 Q18.744 789.193 23.7092 791.771 Q27.7196 793.808 35.995 794.412 L35.995 774.297 M13.9697 784.323 Q13.9697 776.684 20.7174 772.323 Q27.4332 767.963 39.337 767.963 Q51.2091 767.963 57.9567 772.323 Q64.7362 776.684 64.7362 784.323 Q64.7362 791.993 57.9567 796.322 Q51.2091 800.683 39.337 800.683 Q27.4332 800.683 20.7174 796.322 Q13.9697 791.993 13.9697 784.323 Z" fill="#000000" fill-rule="nonzero" fill-opacity="1" /><path clip-path="url(#clip190)" d="M14.1925 750.712 L79.3773 750.712 L79.3773 756.123 L14.1925 756.123 L14.1925 750.712 Z" fill="#000000" fill-rule="nonzero" fill-opacity="1" /><path clip-path="url(#clip190)" d="M28.3562 706.661 L45.7028 719.552 L64.0042 705.993 L64.0042 712.9 L49.9996 723.276 L64.0042 733.652 L64.0042 740.559 L45.3526 726.713 L28.3562 739.381 L28.3562 732.474 L41.0558 723.021 L28.3562 713.568 L28.3562 706.661 Z" fill="#000000" fill-rule="nonzero" fill-opacity="1" /><path clip-path="url(#clip190)" d="M14.5426 698.64 L14.5426 693.548 Q22.0542 688.773 29.2474 686.418 Q36.4406 684.031 43.5384 684.031 Q50.668 684.031 57.8931 686.418 Q65.1182 688.773 72.5979 693.548 L72.5979 698.64 Q65.3091 694.407 58.1159 692.338 Q50.8908 690.238 43.5384 690.238 Q36.186 690.238 29.0246 692.338 Q21.8632 694.407 14.5426 698.64 Z" fill="#000000" fill-rule="nonzero" fill-opacity="1" /><path clip-path="url(#clip190)" d="M642.267 65.6895 L670.825 65.6895 L670.825 72.576 L632.423 72.576 L632.423 65.6895 Q637.081 60.8689 645.102 52.7671 Q653.163 44.6248 655.229 42.2752 Q659.159 37.8598 660.698 34.8216 Q662.278 31.7429 662.278 28.7857 Q662.278 23.9651 658.875 20.927 Q655.513 17.8888 650.085 17.8888 Q646.236 17.8888 641.942 19.2256 Q637.689 20.5624 632.828 23.2765 L632.828 15.0127 Q637.77 13.0277 642.064 12.015 Q646.358 11.0023 649.923 11.0023 Q659.321 11.0023 664.911 15.7013 Q670.501 20.4004 670.501 28.2591 Q670.501 31.9859 669.083 35.3482 Q667.706 38.6699 664.02 43.2069 Q663.007 44.3817 657.579 50.0125 Q652.151 55.6027 642.267 65.6895 Z" fill="#000000" fill-rule="nonzero" fill-opacity="1" /><path clip-path="url(#clip190)" d="M705.501 17.4837 Q699.182 17.4837 695.981 23.7221 Q692.822 29.92 692.822 42.3968 Q692.822 54.833 695.981 61.0714 Q699.182 67.2693 705.501 67.2693 Q711.861 67.2693 715.021 61.0714 Q718.221 54.833 718.221 42.3968 Q718.221 29.92 715.021 23.7221 Q711.861 17.4837 705.501 17.4837 M705.501 11.0023 Q715.669 11.0023 721.016 19.0636 Q726.404 27.0843 726.404 42.3968 Q726.404 57.6687 721.016 65.73 Q715.669 73.7508 705.501 73.7508 Q695.333 73.7508 689.946 65.73 Q684.598 57.6687 684.598 42.3968 Q684.598 27.0843 689.946 19.0636 Q695.333 11.0023 705.501 11.0023 Z" fill="#000000" fill-rule="nonzero" fill-opacity="1" /><path clip-path="url(#clip190)" d="M763.267 19.2256 L742.607 51.5113 L763.267 51.5113 L763.267 19.2256 M761.12 12.096 L771.409 12.096 L771.409 51.5113 L780.038 51.5113 L780.038 58.3168 L771.409 58.3168 L771.409 72.576 L763.267 72.576 L763.267 58.3168 L735.964 58.3168 L735.964 50.4176 L761.12 12.096 Z" fill="#000000" fill-rule="nonzero" fill-opacity="1" /><path clip-path="url(#clip190)" d="M811.068 43.8551 Q805.234 43.8551 801.872 46.9743 Q798.55 50.0935 798.55 55.5622 Q798.55 61.0309 801.872 64.1501 Q805.234 67.2693 811.068 67.2693 Q816.901 67.2693 820.263 64.1501 Q823.625 60.9904 823.625 55.5622 Q823.625 50.0935 820.263 46.9743 Q816.941 43.8551 811.068 43.8551 M802.885 40.3713 Q797.619 39.075 794.662 35.4697 Q791.745 31.8644 791.745 26.6793 Q791.745 19.4281 796.89 15.2152 Q802.075 11.0023 811.068 11.0023 Q820.101 11.0023 825.246 15.2152 Q830.39 19.4281 830.39 26.6793 Q830.39 31.8644 827.433 35.4697 Q824.517 39.075 819.291 40.3713 Q825.205 41.7486 828.487 45.759 Q831.808 49.7694 831.808 55.5622 Q831.808 64.3527 826.421 69.0517 Q821.073 73.7508 811.068 73.7508 Q801.062 73.7508 795.674 69.0517 Q790.327 64.3527 790.327 55.5622 Q790.327 49.7694 793.649 45.759 Q796.971 41.7486 802.885 40.3713 M799.887 27.4489 Q799.887 32.148 802.804 34.7811 Q805.761 37.4142 811.068 37.4142 Q816.334 37.4142 819.291 34.7811 Q822.289 32.148 822.289 27.4489 Q822.289 22.7499 819.291 20.1168 Q816.334 17.4837 811.068 17.4837 Q805.761 17.4837 802.804 20.1168 Q799.887 22.7499 799.887 27.4489 Z" fill="#000000" fill-rule="nonzero" fill-opacity="1" /><path clip-path="url(#clip190)" d="M841.53 46.5287 L863.365 46.5287 L863.365 53.1722 L841.53 53.1722 L841.53 46.5287 Z" fill="#000000" fill-rule="nonzero" fill-opacity="1" /><path clip-path="url(#clip190)" d="M905.089 34.0924 L905.089 9.54393 L912.543 9.54393 L912.543 72.576 L905.089 72.576 L905.089 65.7705 Q902.74 69.8214 899.134 71.8063 Q895.57 73.7508 890.546 73.7508 Q882.323 73.7508 877.138 67.1883 Q871.993 60.6258 871.993 49.9314 Q871.993 39.2371 877.138 32.6746 Q882.323 26.1121 890.546 26.1121 Q895.57 26.1121 899.134 28.0971 Q902.74 30.0415 905.089 34.0924 M879.69 49.9314 Q879.69 58.1548 883.052 62.8538 Q886.455 67.5124 892.369 67.5124 Q898.284 67.5124 901.686 62.8538 Q905.089 58.1548 905.089 49.9314 Q905.089 41.7081 901.686 37.0496 Q898.284 32.3505 892.369 32.3505 Q886.455 32.3505 883.052 37.0496 Q879.69 41.7081 879.69 49.9314 Z" fill="#000000" fill-rule="nonzero" fill-opacity="1" /><path clip-path="url(#clip190)" d="M927.896 27.2059 L935.349 27.2059 L935.349 72.576 L927.896 72.576 L927.896 27.2059 M927.896 9.54393 L935.349 9.54393 L935.349 18.9825 L927.896 18.9825 L927.896 9.54393 Z" fill="#000000" fill-rule="nonzero" fill-opacity="1" /><path clip-path="url(#clip190)" d="M986.269 35.9153 Q989.064 30.8922 992.953 28.5022 Q996.842 26.1121 1002.11 26.1121 Q1009.2 26.1121 1013.05 31.0947 Q1016.89 36.0368 1016.89 45.1919 L1016.89 72.576 L1009.4 72.576 L1009.4 45.4349 Q1009.4 38.913 1007.09 35.7533 Q1004.78 32.5936 1000.04 32.5936 Q994.25 32.5936 990.887 36.4419 Q987.525 40.2903 987.525 46.9338 L987.525 72.576 L980.031 72.576 L980.031 45.4349 Q980.031 38.8725 977.722 35.7533 Q975.413 32.5936 970.592 32.5936 Q964.881 32.5936 961.518 36.4824 Q958.156 40.3308 958.156 46.9338 L958.156 72.576 L950.662 72.576 L950.662 27.2059 L958.156 27.2059 L958.156 34.2544 Q960.708 30.082 964.273 28.0971 Q967.838 26.1121 972.739 26.1121 Q977.681 26.1121 981.125 28.6237 Q984.608 31.1352 986.269 35.9153 Z" fill="#000000" fill-rule="nonzero" fill-opacity="1" /><path clip-path="url(#clip190)" d="M1070.57 48.0275 L1070.57 51.6733 L1036.3 51.6733 Q1036.78 59.3701 1040.92 63.421 Q1045.09 67.4314 1052.5 67.4314 Q1056.8 67.4314 1060.81 66.3781 Q1064.86 65.3249 1068.83 63.2184 L1068.83 70.267 Q1064.82 71.9684 1060.6 72.8596 Q1056.39 73.7508 1052.06 73.7508 Q1041.2 73.7508 1034.84 67.4314 Q1028.52 61.1119 1028.52 50.3365 Q1028.52 39.1965 1034.52 32.6746 Q1040.55 26.1121 1050.76 26.1121 Q1059.91 26.1121 1065.22 32.0264 Q1070.57 37.9003 1070.57 48.0275 M1063.11 45.84 Q1063.03 39.7232 1059.67 36.0774 Q1056.35 32.4315 1050.84 32.4315 Q1044.6 32.4315 1040.83 35.9558 Q1037.11 39.4801 1036.54 45.8805 L1063.11 45.84 Z" fill="#000000" fill-rule="nonzero" fill-opacity="1" /><path clip-path="url(#clip190)" d="M1120.52 45.1919 L1120.52 72.576 L1113.06 72.576 L1113.06 45.4349 Q1113.06 38.994 1110.55 35.7938 Q1108.04 32.5936 1103.02 32.5936 Q1096.98 32.5936 1093.5 36.4419 Q1090.01 40.2903 1090.01 46.9338 L1090.01 72.576 L1082.52 72.576 L1082.52 27.2059 L1090.01 27.2059 L1090.01 34.2544 Q1092.69 30.163 1096.29 28.1376 Q1099.94 26.1121 1104.68 26.1121 Q1112.5 26.1121 1116.51 30.9732 Q1120.52 35.7938 1120.52 45.1919 Z" fill="#000000" fill-rule="nonzero" fill-opacity="1" /><path clip-path="url(#clip190)" d="M1164.31 28.5427 L1164.31 35.5912 Q1161.15 33.9709 1157.74 33.1607 Q1154.34 32.3505 1150.7 32.3505 Q1145.15 32.3505 1142.35 34.0519 Q1139.6 35.7533 1139.6 39.156 Q1139.6 41.7486 1141.58 43.2475 Q1143.57 44.7058 1149.56 46.0426 L1152.11 46.6097 Q1160.05 48.3111 1163.37 51.4303 Q1166.74 54.509 1166.74 60.0587 Q1166.74 66.3781 1161.71 70.0644 Q1156.73 73.7508 1147.98 73.7508 Q1144.34 73.7508 1140.37 73.0216 Q1136.44 72.3329 1132.06 70.9151 L1132.06 63.2184 Q1136.19 65.3654 1140.2 66.4591 Q1144.21 67.5124 1148.14 67.5124 Q1153.41 67.5124 1156.25 65.73 Q1159.08 63.9071 1159.08 60.6258 Q1159.08 57.5877 1157.01 55.9673 Q1154.99 54.3469 1148.06 52.8481 L1145.47 52.2405 Q1138.54 50.7821 1135.46 47.7845 Q1132.39 44.7463 1132.39 39.4801 Q1132.39 33.0797 1136.92 29.5959 Q1141.46 26.1121 1149.8 26.1121 Q1153.94 26.1121 1157.58 26.7198 Q1161.23 27.3274 1164.31 28.5427 Z" fill="#000000" fill-rule="nonzero" fill-opacity="1" /><path clip-path="url(#clip190)" d="M1178.61 27.2059 L1186.06 27.2059 L1186.06 72.576 L1178.61 72.576 L1178.61 27.2059 M1178.61 9.54393 L1186.06 9.54393 L1186.06 18.9825 L1178.61 18.9825 L1178.61 9.54393 Z" fill="#000000" fill-rule="nonzero" fill-opacity="1" /><path clip-path="url(#clip190)" d="M1219.24 32.4315 Q1213.24 32.4315 1209.76 37.1306 Q1206.27 41.7891 1206.27 49.9314 Q1206.27 58.0738 1209.72 62.7728 Q1213.2 67.4314 1219.24 67.4314 Q1225.19 67.4314 1228.68 62.7323 Q1232.16 58.0333 1232.16 49.9314 Q1232.16 41.8701 1228.68 37.1711 Q1225.19 32.4315 1219.24 32.4315 M1219.24 26.1121 Q1228.96 26.1121 1234.51 32.4315 Q1240.06 38.7509 1240.06 49.9314 Q1240.06 61.0714 1234.51 67.4314 Q1228.96 73.7508 1219.24 73.7508 Q1209.47 73.7508 1203.92 67.4314 Q1198.42 61.0714 1198.42 49.9314 Q1198.42 38.7509 1203.92 32.4315 Q1209.47 26.1121 1219.24 26.1121 Z" fill="#000000" fill-rule="nonzero" fill-opacity="1" /><path clip-path="url(#clip190)" d="M1290.13 45.1919 L1290.13 72.576 L1282.67 72.576 L1282.67 45.4349 Q1282.67 38.994 1280.16 35.7938 Q1277.65 32.5936 1272.63 32.5936 Q1266.59 32.5936 1263.11 36.4419 Q1259.62 40.2903 1259.62 46.9338 L1259.62 72.576 L1252.13 72.576 L1252.13 27.2059 L1259.62 27.2059 L1259.62 34.2544 Q1262.3 30.163 1265.9 28.1376 Q1269.55 26.1121 1274.29 26.1121 Q1282.11 26.1121 1286.12 30.9732 Q1290.13 35.7938 1290.13 45.1919 Z" fill="#000000" fill-rule="nonzero" fill-opacity="1" /><path clip-path="url(#clip190)" d="M1325.61 49.7694 Q1316.58 49.7694 1313.1 51.8354 Q1309.61 53.9013 1309.61 58.8839 Q1309.61 62.8538 1312.21 65.2034 Q1314.84 67.5124 1319.33 67.5124 Q1325.53 67.5124 1329.26 63.1374 Q1333.03 58.7219 1333.03 51.4303 L1333.03 49.7694 L1325.61 49.7694 M1340.48 46.6907 L1340.48 72.576 L1333.03 72.576 L1333.03 65.6895 Q1330.47 69.8214 1326.67 71.8063 Q1322.86 73.7508 1317.35 73.7508 Q1310.38 73.7508 1306.25 69.8619 Q1302.16 65.9325 1302.16 59.3701 Q1302.16 51.7138 1307.26 47.825 Q1312.41 43.9361 1322.58 43.9361 L1333.03 43.9361 L1333.03 43.2069 Q1333.03 38.0623 1329.62 35.2672 Q1326.26 32.4315 1320.14 32.4315 Q1316.26 32.4315 1312.57 33.3632 Q1308.88 34.295 1305.48 36.1584 L1305.48 29.2718 Q1309.57 27.692 1313.42 26.9223 Q1317.27 26.1121 1320.91 26.1121 Q1330.76 26.1121 1335.62 31.2163 Q1340.48 36.3204 1340.48 46.6907 Z" fill="#000000" fill-rule="nonzero" fill-opacity="1" /><path clip-path="url(#clip190)" d="M1355.83 9.54393 L1363.29 9.54393 L1363.29 72.576 L1355.83 72.576 L1355.83 9.54393 Z" fill="#000000" fill-rule="nonzero" fill-opacity="1" /><path clip-path="url(#clip190)" d="M1442.97 45.1919 L1442.97 72.576 L1435.51 72.576 L1435.51 45.4349 Q1435.51 38.994 1433 35.7938 Q1430.49 32.5936 1425.47 32.5936 Q1419.43 32.5936 1415.95 36.4419 Q1412.46 40.2903 1412.46 46.9338 L1412.46 72.576 L1404.97 72.576 L1404.97 27.2059 L1412.46 27.2059 L1412.46 34.2544 Q1415.14 30.163 1418.74 28.1376 Q1422.39 26.1121 1427.13 26.1121 Q1434.95 26.1121 1438.96 30.9732 Q1442.97 35.7938 1442.97 45.1919 Z" fill="#000000" fill-rule="nonzero" fill-opacity="1" /><path clip-path="url(#clip190)" d="M1475.42 32.4315 Q1469.42 32.4315 1465.94 37.1306 Q1462.45 41.7891 1462.45 49.9314 Q1462.45 58.0738 1465.9 62.7728 Q1469.38 67.4314 1475.42 67.4314 Q1481.37 67.4314 1484.85 62.7323 Q1488.34 58.0333 1488.34 49.9314 Q1488.34 41.8701 1484.85 37.1711 Q1481.37 32.4315 1475.42 32.4315 M1475.42 26.1121 Q1485.14 26.1121 1490.69 32.4315 Q1496.24 38.7509 1496.24 49.9314 Q1496.24 61.0714 1490.69 67.4314 Q1485.14 73.7508 1475.42 73.7508 Q1465.65 73.7508 1460.1 67.4314 Q1454.59 61.0714 1454.59 49.9314 Q1454.59 38.7509 1460.1 32.4315 Q1465.65 26.1121 1475.42 26.1121 Z" fill="#000000" fill-rule="nonzero" fill-opacity="1" /><path clip-path="url(#clip190)" d="M1508.59 27.2059 L1516.05 27.2059 L1516.05 72.576 L1508.59 72.576 L1508.59 27.2059 M1508.59 9.54393 L1516.05 9.54393 L1516.05 18.9825 L1508.59 18.9825 L1508.59 9.54393 Z" fill="#000000" fill-rule="nonzero" fill-opacity="1" /><path clip-path="url(#clip190)" d="M1560.57 28.5427 L1560.57 35.5912 Q1557.41 33.9709 1554 33.1607 Q1550.6 32.3505 1546.95 32.3505 Q1541.41 32.3505 1538.61 34.0519 Q1535.86 35.7533 1535.86 39.156 Q1535.86 41.7486 1537.84 43.2475 Q1539.83 44.7058 1545.82 46.0426 L1548.37 46.6097 Q1556.31 48.3111 1559.63 51.4303 Q1563 54.509 1563 60.0587 Q1563 66.3781 1557.97 70.0644 Q1552.99 73.7508 1544.24 73.7508 Q1540.6 73.7508 1536.63 73.0216 Q1532.7 72.3329 1528.32 70.9151 L1528.32 63.2184 Q1532.45 65.3654 1536.46 66.4591 Q1540.47 67.5124 1544.4 67.5124 Q1549.67 67.5124 1552.5 65.73 Q1555.34 63.9071 1555.34 60.6258 Q1555.34 57.5877 1553.27 55.9673 Q1551.25 54.3469 1544.32 52.8481 L1541.73 52.2405 Q1534.8 50.7821 1531.72 47.7845 Q1528.64 44.7463 1528.64 39.4801 Q1528.64 33.0797 1533.18 29.5959 Q1537.72 26.1121 1546.06 26.1121 Q1550.2 26.1121 1553.84 26.7198 Q1557.49 27.3274 1560.57 28.5427 Z" fill="#000000" fill-rule="nonzero" fill-opacity="1" /><path clip-path="url(#clip190)" d="M1593.74 76.7889 Q1590.58 84.8907 1587.59 87.3618 Q1584.59 89.8329 1579.56 89.8329 L1573.61 89.8329 L1573.61 83.5945 L1577.98 83.5945 Q1581.06 83.5945 1582.76 82.1361 Q1584.47 80.6778 1586.53 75.2496 L1587.87 71.8468 L1569.52 27.2059 L1577.42 27.2059 L1591.6 62.6918 L1605.77 27.2059 L1613.67 27.2059 L1593.74 76.7889 Z" fill="#000000" fill-rule="nonzero" fill-opacity="1" /><path clip-path="url(#clip190)" d="M1673.3 9.54393 L1673.3 15.7418 L1666.17 15.7418 Q1662.16 15.7418 1660.58 17.3622 Q1659.04 18.9825 1659.04 23.1955 L1659.04 27.2059 L1671.32 27.2059 L1671.32 32.9987 L1659.04 32.9987 L1659.04 72.576 L1651.55 72.576 L1651.55 32.9987 L1644.42 32.9987 L1644.42 27.2059 L1651.55 27.2059 L1651.55 24.0462 Q1651.55 16.471 1655.07 13.0277 Q1658.6 9.54393 1666.25 9.54393 L1673.3 9.54393 Z" fill="#000000" fill-rule="nonzero" fill-opacity="1" /><path clip-path="url(#clip190)" d="M1678.77 54.671 L1678.77 27.2059 L1686.23 27.2059 L1686.23 54.3874 Q1686.23 60.8284 1688.74 64.0691 Q1691.25 67.2693 1696.27 67.2693 Q1702.31 67.2693 1705.79 63.421 Q1709.32 59.5726 1709.32 52.9291 L1709.32 27.2059 L1716.77 27.2059 L1716.77 72.576 L1709.32 72.576 L1709.32 65.6084 Q1706.6 69.7404 1703 71.7658 Q1699.43 73.7508 1694.69 73.7508 Q1686.87 73.7508 1682.82 68.8897 Q1678.77 64.0286 1678.77 54.671 M1697.53 26.1121 L1697.53 26.1121 Z" fill="#000000" fill-rule="nonzero" fill-opacity="1" /><path clip-path="url(#clip190)" d="M1769.84 45.1919 L1769.84 72.576 L1762.38 72.576 L1762.38 45.4349 Q1762.38 38.994 1759.87 35.7938 Q1757.36 32.5936 1752.34 32.5936 Q1746.3 32.5936 1742.82 36.4419 Q1739.33 40.2903 1739.33 46.9338 L1739.33 72.576 L1731.84 72.576 L1731.84 27.2059 L1739.33 27.2059 L1739.33 34.2544 Q1742.01 30.163 1745.61 28.1376 Q1749.26 26.1121 1754 26.1121 Q1761.81 26.1121 1765.83 30.9732 Q1769.84 35.7938 1769.84 45.1919 Z" fill="#000000" fill-rule="nonzero" fill-opacity="1" /><path clip-path="url(#clip190)" d="M1822.42 45.1919 L1822.42 72.576 L1814.96 72.576 L1814.96 45.4349 Q1814.96 38.994 1812.45 35.7938 Q1809.94 32.5936 1804.92 32.5936 Q1798.88 32.5936 1795.4 36.4419 Q1791.91 40.2903 1791.91 46.9338 L1791.91 72.576 L1784.42 72.576 L1784.42 27.2059 L1791.91 27.2059 L1791.91 34.2544 Q1794.59 30.163 1798.19 28.1376 Q1801.84 26.1121 1806.58 26.1121 Q1814.4 26.1121 1818.41 30.9732 Q1822.42 35.7938 1822.42 45.1919 Z" fill="#000000" fill-rule="nonzero" fill-opacity="1" /><path clip-path="url(#clip190)" d="M1876.09 48.0275 L1876.09 51.6733 L1841.82 51.6733 Q1842.31 59.3701 1846.44 63.421 Q1850.61 67.4314 1858.02 67.4314 Q1862.32 67.4314 1866.33 66.3781 Q1870.38 65.3249 1874.35 63.2184 L1874.35 70.267 Q1870.34 71.9684 1866.13 72.8596 Q1861.91 73.7508 1857.58 73.7508 Q1846.72 73.7508 1840.36 67.4314 Q1834.04 61.1119 1834.04 50.3365 Q1834.04 39.1965 1840.04 32.6746 Q1846.07 26.1121 1856.28 26.1121 Q1865.44 26.1121 1870.74 32.0264 Q1876.09 37.9003 1876.09 48.0275 M1868.64 45.84 Q1868.56 39.7232 1865.19 36.0774 Q1861.87 32.4315 1856.36 32.4315 Q1850.12 32.4315 1846.36 35.9558 Q1842.63 39.4801 1842.06 45.8805 L1868.64 45.84 Z" fill="#000000" fill-rule="nonzero" fill-opacity="1" /><path clip-path="url(#clip190)" d="M1888.32 9.54393 L1895.78 9.54393 L1895.78 72.576 L1888.32 72.576 L1888.32 9.54393 Z" fill="#000000" fill-rule="nonzero" fill-opacity="1" /><path clip-path="url(#clip192)" d="M1161.4 1391.49 L1161.4 1423.18 L1264.1 1423.18 L1264.1 1391.49 L1161.4 1391.49 L1161.4 1391.49  Z" fill="#009af9" fill-rule="evenodd" fill-opacity="1"/>
<polyline clip-path="url(#clip192)" style="stroke:#000000; stroke-linecap:round; stroke-linejoin:round; stroke-width:4; stroke-opacity:1; fill:none" points="1161.4,1391.49 1161.4,1423.18 1264.1,1423.18 1264.1,1391.49 1161.4,1391.49 "/>
<path clip-path="url(#clip192)" d="M1264.1 1343.96 L1264.1 1423.18 L1366.8 1423.18 L1366.8 1343.96 L1264.1 1343.96 L1264.1 1343.96  Z" fill="#009af9" fill-rule="evenodd" fill-opacity="1"/>
<polyline clip-path="url(#clip192)" style="stroke:#000000; stroke-linecap:round; stroke-linejoin:round; stroke-width:4; stroke-opacity:1; fill:none" points="1264.1,1343.96 1264.1,1423.18 1366.8,1423.18 1366.8,1343.96 1264.1,1343.96 "/>
<path clip-path="url(#clip192)" d="M1366.8 868.643 L1366.8 1423.18 L1469.51 1423.18 L1469.51 868.643 L1366.8 868.643 L1366.8 868.643  Z" fill="#009af9" fill-rule="evenodd" fill-opacity="1"/>
<polyline clip-path="url(#clip192)" style="stroke:#000000; stroke-linecap:round; stroke-linejoin:round; stroke-width:4; stroke-opacity:1; fill:none" points="1366.8,868.643 1366.8,1423.18 1469.51,1423.18 1469.51,868.643 1366.8,868.643 "/>
<path clip-path="url(#clip192)" d="M1469.51 329.95 L1469.51 1423.18 L1572.21 1423.18 L1572.21 329.95 L1469.51 329.95 L1469.51 329.95  Z" fill="#009af9" fill-rule="evenodd" fill-opacity="1"/>
<polyline clip-path="url(#clip192)" style="stroke:#000000; stroke-linecap:round; stroke-linejoin:round; stroke-width:4; stroke-opacity:1; fill:none" points="1469.51,329.95 1469.51,1423.18 1572.21,1423.18 1572.21,329.95 1469.51,329.95 "/>
<path clip-path="url(#clip192)" d="M1572.21 147.745 L1572.21 1423.18 L1674.91 1423.18 L1674.91 147.745 L1572.21 147.745 L1572.21 147.745  Z" fill="#009af9" fill-rule="evenodd" fill-opacity="1"/>
<polyline clip-path="url(#clip192)" style="stroke:#000000; stroke-linecap:round; stroke-linejoin:round; stroke-width:4; stroke-opacity:1; fill:none" points="1572.21,147.745 1572.21,1423.18 1674.91,1423.18 1674.91,147.745 1572.21,147.745 "/>
<path clip-path="url(#clip192)" d="M1674.91 741.892 L1674.91 1423.18 L1777.62 1423.18 L1777.62 741.892 L1674.91 741.892 L1674.91 741.892  Z" fill="#009af9" fill-rule="evenodd" fill-opacity="1"/>
<polyline clip-path="url(#clip192)" style="stroke:#000000; stroke-linecap:round; stroke-linejoin:round; stroke-width:4; stroke-opacity:1; fill:none" points="1674.91,741.892 1674.91,1423.18 1777.62,1423.18 1777.62,741.892 1674.91,741.892 "/>
<path clip-path="url(#clip192)" d="M1777.62 1217.21 L1777.62 1423.18 L1880.32 1423.18 L1880.32 1217.21 L1777.62 1217.21 L1777.62 1217.21  Z" fill="#009af9" fill-rule="evenodd" fill-opacity="1"/>
<polyline clip-path="url(#clip192)" style="stroke:#000000; stroke-linecap:round; stroke-linejoin:round; stroke-width:4; stroke-opacity:1; fill:none" points="1777.62,1217.21 1777.62,1423.18 1880.32,1423.18 1880.32,1217.21 1777.62,1217.21 "/>
<path clip-path="url(#clip192)" d="M1880.32 1383.57 L1880.32 1423.18 L1983.02 1423.18 L1983.02 1383.57 L1880.32 1383.57 L1880.32 1383.57  Z" fill="#009af9" fill-rule="evenodd" fill-opacity="1"/>
<polyline clip-path="url(#clip192)" style="stroke:#000000; stroke-linecap:round; stroke-linejoin:round; stroke-width:4; stroke-opacity:1; fill:none" points="1880.32,1383.57 1880.32,1423.18 1983.02,1423.18 1983.02,1383.57 1880.32,1383.57 "/>
<circle clip-path="url(#clip192)" style="fill:#009af9; stroke:none; fill-opacity:0" cx="1212.75" cy="1391.49" r="2"/>
<circle clip-path="url(#clip192)" style="fill:#009af9; stroke:none; fill-opacity:0" cx="1315.45" cy="1343.96" r="2"/>
<circle clip-path="url(#clip192)" style="fill:#009af9; stroke:none; fill-opacity:0" cx="1418.16" cy="868.643" r="2"/>
<circle clip-path="url(#clip192)" style="fill:#009af9; stroke:none; fill-opacity:0" cx="1520.86" cy="329.95" r="2"/>
<circle clip-path="url(#clip192)" style="fill:#009af9; stroke:none; fill-opacity:0" cx="1623.56" cy="147.745" r="2"/>
<circle clip-path="url(#clip192)" style="fill:#009af9; stroke:none; fill-opacity:0" cx="1726.27" cy="741.892" r="2"/>
<circle clip-path="url(#clip192)" style="fill:#009af9; stroke:none; fill-opacity:0" cx="1828.97" cy="1217.21" r="2"/>
<circle clip-path="url(#clip192)" style="fill:#009af9; stroke:none; fill-opacity:0" cx="1931.67" cy="1383.57" r="2"/>
<polyline clip-path="url(#clip192)" style="stroke:#e26f46; stroke-linecap:round; stroke-linejoin:round; stroke-width:8; stroke-opacity:1; fill:none" points="237.067,1423.18 239.123,1423.18 241.179,1423.18 243.236,1423.18 245.292,1423.18 247.348,1423.18 249.404,1423.18 251.46,1423.18 253.516,1423.18 255.572,1423.18 257.628,1423.18 259.685,1423.18 261.741,1423.18 263.797,1423.18 265.853,1423.18 267.909,1423.18 269.965,1423.18 272.021,1423.18 274.077,1423.18 276.134,1423.18 278.19,1423.18 280.246,1423.18 282.302,1423.18 284.358,1423.18 286.414,1423.18 288.47,1423.18 290.526,1423.18 292.583,1423.18 294.639,1423.18 296.695,1423.18 298.751,1423.18 300.807,1423.18 302.863,1423.18 304.919,1423.18 306.975,1423.18 309.032,1423.18 311.088,1423.18 313.144,1423.18 315.2,1423.18 317.256,1423.18 319.312,1423.18 321.368,1423.18 323.424,1423.18 325.48,1423.18 327.537,1423.18 329.593,1423.18 331.649,1423.18 333.705,1423.18 335.761,1423.18 337.817,1423.18 339.873,1423.18 341.929,1423.18 343.986,1423.18 346.042,1423.18 348.098,1423.18 350.154,1423.18 352.21,1423.18 354.266,1423.18 356.322,1423.18 358.378,1423.18 360.435,1423.18 362.491,1423.18 364.547,1423.18 366.603,1423.18 368.659,1423.18 370.715,1423.18 372.771,1423.18 374.827,1423.18 376.884,1423.18 378.94,1423.18 380.996,1423.18 383.052,1423.18 385.108,1423.18 387.164,1423.18 389.22,1423.18 391.276,1423.18 393.333,1423.18 395.389,1423.18 397.445,1423.18 399.501,1423.18 401.557,1423.18 403.613,1423.18 405.669,1423.18 407.725,1423.18 409.782,1423.18 411.838,1423.18 413.894,1423.18 415.95,1423.18 418.006,1423.18 420.062,1423.18 422.118,1423.18 424.174,1423.18 426.231,1423.18 428.287,1423.18 430.343,1423.18 432.399,1423.18 434.455,1423.18 436.511,1423.18 438.567,1423.18 440.623,1423.18 442.679,1423.18 444.736,1423.18 446.792,1423.18 448.848,1423.18 450.904,1423.18 452.96,1423.18 455.016,1423.18 457.072,1423.18 459.128,1423.18 461.185,1423.18 463.241,1423.18 465.297,1423.18 467.353,1423.18 469.409,1423.18 471.465,1423.18 473.521,1423.18 475.577,1423.18 477.634,1423.18 479.69,1423.18 481.746,1423.18 483.802,1423.18 485.858,1423.18 487.914,1423.18 489.97,1423.18 492.026,1423.18 494.083,1423.18 496.139,1423.18 498.195,1423.18 500.251,1423.18 502.307,1423.18 504.363,1423.18 506.419,1423.18 508.475,1423.18 510.532,1423.18 512.588,1423.18 514.644,1423.18 516.7,1423.18 518.756,1423.18 520.812,1423.18 522.868,1423.18 524.924,1423.18 526.981,1423.18 529.037,1423.18 531.093,1423.18 533.149,1423.18 535.205,1423.18 537.261,1423.18 539.317,1423.18 541.373,1423.18 543.43,1423.18 545.486,1423.18 547.542,1423.18 549.598,1423.18 551.654,1423.18 553.71,1423.18 555.766,1423.18 557.822,1423.18 559.878,1423.18 561.935,1423.18 563.991,1423.18 566.047,1423.18 568.103,1423.18 570.159,1423.18 572.215,1423.18 574.271,1423.18 576.327,1423.18 578.384,1423.18 580.44,1423.18 582.496,1423.18 584.552,1423.18 586.608,1423.18 588.664,1423.18 590.72,1423.18 592.776,1423.18 594.833,1423.18 596.889,1423.18 598.945,1423.18 601.001,1423.18 603.057,1423.18 605.113,1423.18 607.169,1423.18 609.225,1423.18 611.282,1423.18 613.338,1423.18 615.394,1423.18 617.45,1423.18 619.506,1423.18 621.562,1423.18 623.618,1423.18 625.674,1423.18 627.731,1423.18 629.787,1423.18 631.843,1423.18 633.899,1423.18 635.955,1423.18 638.011,1423.18 640.067,1423.18 642.123,1423.18 644.18,1423.18 646.236,1423.18 648.292,1423.18 650.348,1423.18 652.404,1423.18 654.46,1423.18 656.516,1423.18 658.572,1423.18 660.629,1423.18 662.685,1423.18 664.741,1423.18 666.797,1423.18 668.853,1423.18 670.909,1423.18 672.965,1423.18 675.021,1423.18 677.077,1423.18 679.134,1423.18 681.19,1423.18 683.246,1423.18 685.302,1423.18 687.358,1423.18 689.414,1423.18 691.47,1423.18 693.526,1423.18 695.583,1423.18 697.639,1423.18 699.695,1423.18 701.751,1423.18 703.807,1423.18 705.863,1423.18 707.919,1423.18 709.975,1423.18 712.032,1423.18 714.088,1423.18 716.144,1423.18 718.2,1423.18 720.256,1423.18 722.312,1423.18 724.368,1423.18 726.424,1423.18 728.481,1423.18 730.537,1423.18 732.593,1423.18 734.649,1423.18 736.705,1423.18 738.761,1423.18 740.817,1423.18 742.873,1423.18 744.93,1423.18 746.986,1423.18 749.042,1423.18 751.098,1423.18 753.154,1423.18 755.21,1423.18 757.266,1423.18 759.322,1423.18 761.379,1423.18 763.435,1423.18 765.491,1423.18 767.547,1423.18 769.603,1423.18 771.659,1423.18 773.715,1423.18 775.771,1423.18 777.828,1423.18 779.884,1423.18 781.94,1423.18 783.996,1423.18 786.052,1423.18 788.108,1423.18 790.164,1423.18 792.22,1423.18 794.276,1423.18 796.333,1423.18 798.389,1423.18 800.445,1423.18 802.501,1423.18 804.557,1423.18 806.613,1423.18 808.669,1423.18 810.725,1423.18 812.782,1423.18 814.838,1423.18 816.894,1423.18 818.95,1423.18 821.006,1423.18 823.062,1423.18 825.118,1423.18 827.174,1423.18 829.231,1423.18 831.287,1423.18 833.343,1423.18 835.399,1423.18 837.455,1423.18 839.511,1423.18 841.567,1423.18 843.623,1423.18 845.68,1423.18 847.736,1423.18 849.792,1423.18 851.848,1423.18 853.904,1423.18 855.96,1423.18 858.016,1423.18 860.072,1423.18 862.129,1423.18 864.185,1423.18 866.241,1423.18 868.297,1423.18 870.353,1423.18 872.409,1423.18 874.465,1423.18 876.521,1423.18 878.578,1423.18 880.634,1423.18 882.69,1423.18 884.746,1423.18 886.802,1423.18 888.858,1423.18 890.914,1423.18 892.97,1423.18 895.027,1423.18 897.083,1423.18 899.139,1423.18 901.195,1423.18 903.251,1423.18 905.307,1423.18 907.363,1423.18 909.419,1423.18 911.475,1423.18 913.532,1423.18 915.588,1423.18 917.644,1423.18 919.7,1423.18 921.756,1423.18 923.812,1423.18 925.868,1423.17 927.924,1423.17 929.981,1423.17 932.037,1423.17 934.093,1423.17 936.149,1423.17 938.205,1423.17 940.261,1423.17 942.317,1423.17 944.373,1423.17 946.43,1423.17 948.486,1423.17 950.542,1423.17 952.598,1423.17 954.654,1423.16 956.71,1423.16 958.766,1423.16 960.822,1423.16 962.879,1423.16 964.935,1423.16 966.991,1423.15 969.047,1423.15 971.103,1423.15 973.159,1423.15 975.215,1423.15 977.271,1423.14 979.328,1423.14 981.384,1423.14 983.44,1423.13 985.496,1423.13 987.552,1423.13 989.608,1423.12 991.664,1423.12 993.72,1423.11 995.777,1423.11 997.833,1423.1 999.889,1423.1 1001.94,1423.09 1004,1423.08 1006.06,1423.08 1008.11,1423.07 1010.17,1423.06 1012.23,1423.05 1014.28,1423.04 1016.34,1423.03 1018.39,1423.02 1020.45,1423.01 1022.51,1423 1024.56,1422.99 1026.62,1422.97 1028.67,1422.96 1030.73,1422.94 1032.79,1422.93 1034.84,1422.91 1036.9,1422.89 1038.96,1422.87 1041.01,1422.85 1043.07,1422.82 1045.12,1422.8 1047.18,1422.77 1049.24,1422.75 1051.29,1422.72 1053.35,1422.69 1055.4,1422.65 1057.46,1422.62 1059.52,1422.58 1061.57,1422.54 1063.63,1422.5 1065.68,1422.45 1067.74,1422.4 1069.8,1422.35 1071.85,1422.3 1073.91,1422.24 1075.97,1422.18 1078.02,1422.12 1080.08,1422.05 1082.13,1421.98 1084.19,1421.9 1086.25,1421.82 1088.3,1421.74 1090.36,1421.65 1092.41,1421.55 1094.47,1421.45 1096.53,1421.35 1098.58,1421.23 1100.64,1421.11 1102.69,1420.99 1104.75,1420.86 1106.81,1420.72 1108.86,1420.57 1110.92,1420.41 1112.98,1420.25 1115.03,1420.08 1117.09,1419.89 1119.14,1419.7 1121.2,1419.5 1123.26,1419.29 1125.31,1419.06 1127.37,1418.83 1129.42,1418.58 1131.48,1418.32 1133.54,1418.04 1135.59,1417.75 1137.65,1417.45 1139.71,1417.13 1141.76,1416.8 1143.82,1416.45 1145.87,1416.08 1147.93,1415.69 1149.99,1415.28 1152.04,1414.86 1154.1,1414.41 1156.15,1413.95 1158.21,1413.46 1160.27,1412.94 1162.32,1412.41 1164.38,1411.84 1166.43,1411.26 1168.49,1410.64 1170.55,1410 1172.6,1409.33 1174.66,1408.62 1176.72,1407.89 1178.77,1407.12 1180.83,1406.32 1182.88,1405.48 1184.94,1404.61 1187,1403.7 1189.05,1402.75 1191.11,1401.76 1193.16,1400.73 1195.22,1399.65 1197.28,1398.53 1199.33,1397.37 1201.39,1396.15 1203.44,1394.89 1205.5,1393.58 1207.56,1392.21 1209.61,1390.79 1211.67,1389.31 1213.73,1387.77 1215.78,1386.18 1217.84,1384.52 1219.89,1382.8 1221.95,1381.02 1224.01,1379.17 1226.06,1377.25 1228.12,1375.25 1230.17,1373.19 1232.23,1371.05 1234.29,1368.83 1236.34,1366.54 1238.4,1364.16 1240.46,1361.71 1242.51,1359.16 1244.57,1356.53 1246.62,1353.81 1248.68,1351 1250.74,1348.1 1252.79,1345.1 1254.85,1342 1256.9,1338.8 1258.96,1335.5 1261.02,1332.09 1263.07,1328.58 1265.13,1324.96 1267.18,1321.23 1269.24,1317.38 1271.3,1313.42 1273.35,1309.35 1275.41,1305.15 1277.47,1300.83 1279.52,1296.39 1281.58,1291.82 1283.63,1287.13 1285.69,1282.3 1287.75,1277.35 1289.8,1272.26 1291.86,1267.03 1293.91,1261.67 1295.97,1256.17 1298.03,1250.53 1300.08,1244.74 1302.14,1238.81 1304.19,1232.74 1306.25,1226.52 1308.31,1220.15 1310.36,1213.64 1312.42,1206.97 1314.48,1200.15 1316.53,1193.18 1318.59,1186.05 1320.64,1178.77 1322.7,1171.34 1324.76,1163.75 1326.81,1156 1328.87,1148.1 1330.92,1140.04 1332.98,1131.82 1335.04,1123.44 1337.09,1114.91 1339.15,1106.22 1341.21,1097.37 1343.26,1088.37 1345.32,1079.21 1347.37,1069.9 1349.43,1060.44 1351.49,1050.82 1353.54,1041.05 1355.6,1031.13 1357.65,1021.06 1359.71,1010.84 1361.77,1000.48 1363.82,989.978 1365.88,979.334 1367.93,968.552 1369.99,957.634 1372.05,946.583 1374.1,935.402 1376.16,924.094 1378.22,912.663 1380.27,901.111 1382.33,889.443 1384.38,877.661 1386.44,865.771 1388.5,853.776 1390.55,841.681 1392.61,829.489 1394.66,817.207 1396.72,804.838 1398.78,792.387 1400.83,779.86 1402.89,767.263 1404.94,754.6 1407,741.877 1409.06,729.1 1411.11,716.276 1413.17,703.41 1415.23,690.508 1417.28,677.577 1419.34,664.624 1421.39,651.655 1423.45,638.676 1425.51,625.696 1427.56,612.721 1429.62,599.758 1431.67,586.815 1433.73,573.898 1435.79,561.015 1437.84,548.175 1439.9,535.384 1441.96,522.65 1444.01,509.981 1446.07,497.385 1448.12,484.87 1450.18,472.444 1452.24,460.114 1454.29,447.888 1456.35,435.775 1458.4,423.783 1460.46,411.919 1462.52,400.192 1464.57,388.61 1466.63,377.18 1468.68,365.91 1470.74,354.809 1472.8,343.883 1474.85,333.142 1476.91,322.592 1478.97,312.242 1481.02,302.098 1483.08,292.168 1485.13,282.459 1487.19,272.979 1489.25,263.735 1491.3,254.733 1493.36,245.981 1495.41,237.484 1497.47,229.251 1499.53,221.285 1501.58,213.595 1503.64,206.185 1505.69,199.062 1507.75,192.232 1509.81,185.698 1511.86,179.467 1513.92,173.544 1515.98,167.933 1518.03,162.639 1520.09,157.665 1522.14,153.016 1524.2,148.696 1526.26,144.708 1528.31,141.054 1530.37,137.74 1532.42,134.765 1534.48,132.135 1536.54,129.849 1538.59,127.911 1540.65,126.321 1542.71,125.082 1544.76,124.193 1546.82,123.657 1548.87,123.472 1550.93,123.64 1552.99,124.16 1555.04,125.032 1557.1,126.256 1559.15,127.829 1561.21,129.751 1563.27,132.02 1565.32,134.635 1567.38,137.593 1569.43,140.892 1571.49,144.53 1573.55,148.503 1575.6,152.807 1577.66,157.441 1579.72,162.4 1581.77,167.679 1583.83,173.276 1585.88,179.185 1587.94,185.401 1590,191.921 1592.05,198.738 1594.11,205.847 1596.16,213.243 1598.22,220.921 1600.28,228.873 1602.33,237.095 1604.39,245.579 1606.45,254.32 1608.5,263.31 1610.56,272.543 1612.61,282.012 1614.67,291.71 1616.73,301.63 1618.78,311.764 1620.84,322.105 1622.89,332.646 1624.95,343.379 1627.01,354.296 1629.06,365.389 1631.12,376.651 1633.17,388.074 1635.23,399.649 1637.29,411.37 1639.34,423.227 1641.4,435.214 1643.46,447.321 1645.51,459.542 1647.57,471.867 1649.62,484.289 1651.68,496.8 1653.74,509.393 1655.79,522.058 1657.85,534.789 1659.9,547.578 1661.96,560.416 1664.02,573.297 1666.07,586.212 1668.13,599.154 1670.18,612.117 1672.24,625.092 1674.3,638.072 1676.35,651.05 1678.41,664.02 1680.47,676.974 1682.52,689.906 1684.58,702.809 1686.63,715.677 1688.69,728.504 1690.75,741.283 1692.8,754.008 1694.86,766.674 1696.91,779.275 1698.97,791.805 1701.03,804.259 1703.08,816.632 1705.14,828.919 1707.2,841.115 1709.25,853.215 1711.31,865.214 1713.36,877.11 1715.42,888.896 1717.48,900.57 1719.53,912.127 1721.59,923.564 1723.64,934.878 1725.7,946.065 1727.76,957.122 1729.81,968.046 1731.87,978.835 1733.92,989.485 1735.98,999.995 1738.04,1010.36 1740.09,1020.58 1742.15,1030.66 1744.21,1040.59 1746.26,1050.37 1748.32,1059.99 1750.37,1069.46 1752.43,1078.78 1754.49,1087.95 1756.54,1096.96 1758.6,1105.81 1760.65,1114.51 1762.71,1123.05 1764.77,1131.43 1766.82,1139.66 1768.88,1147.73 1770.93,1155.64 1772.99,1163.39 1775.05,1170.99 1777.1,1178.43 1779.16,1185.72 1781.22,1192.85 1783.27,1199.83 1785.33,1206.66 1787.38,1213.33 1789.44,1219.85 1791.5,1226.23 1793.55,1232.46 1795.61,1238.53 1797.66,1244.47 1799.72,1250.26 1801.78,1255.91 1803.83,1261.42 1805.89,1266.78 1807.95,1272.02 1810,1277.11 1812.06,1282.07 1814.11,1286.9 1816.17,1291.61 1818.23,1296.18 1820.28,1300.63 1822.34,1304.95 1824.39,1309.15 1826.45,1313.24 1828.51,1317.2 1830.56,1321.05 1832.62,1324.79 1834.67,1328.41 1836.73,1331.93 1838.79,1335.34 1840.84,1338.65 1842.9,1341.85 1844.96,1344.95 1847.01,1347.96 1849.07,1350.87 1851.12,1353.68 1853.18,1356.41 1855.24,1359.04 1857.29,1361.59 1859.35,1364.05 1861.4,1366.43 1863.46,1368.73 1865.52,1370.95 1867.57,1373.09 1869.63,1375.16 1871.68,1377.15 1873.74,1379.08 1875.8,1380.93 1877.85,1382.72 1879.91,1384.44 1881.97,1386.1 1884.02,1387.7 1886.08,1389.24 1888.13,1390.72 1890.19,1392.14 1892.25,1393.51 1894.3,1394.83 1896.36,1396.1 1898.41,1397.31 1900.47,1398.48 1902.53,1399.6 1904.58,1400.68 1906.64,1401.71 1908.7,1402.71 1910.75,1403.66 1912.81,1404.57 1914.86,1405.44 1916.92,1406.28 1918.98,1407.08 1921.03,1407.85 1923.09,1408.59 1925.14,1409.29 1927.2,1409.97 1929.26,1410.61 1931.31,1411.23 1933.37,1411.82 1935.42,1412.38 1937.48,1412.92 1939.54,1413.43 1941.59,1413.92 1943.65,1414.39 1945.71,1414.84 1947.76,1415.26 1949.82,1415.67 1951.87,1416.06 1953.93,1416.43 1955.99,1416.78 1958.04,1417.12 1960.1,1417.43 1962.15,1417.74 1964.21,1418.03 1966.27,1418.3 1968.32,1418.57 1970.38,1418.81 1972.43,1419.05 1974.49,1419.28 1976.55,1419.49 1978.6,1419.69 1980.66,1419.88 1982.72,1420.07 1984.77,1420.24 1986.83,1420.41 1988.88,1420.56 1990.94,1420.71 1993,1420.85 1995.05,1420.98 1997.11,1421.11 1999.16,1421.23 2001.22,1421.34 2003.28,1421.45 2005.33,1421.55 2007.39,1421.64 2009.45,1421.73 2011.5,1421.82 2013.56,1421.9 2015.61,1421.98 2017.67,1422.05 2019.73,1422.12 2021.78,1422.18 2023.84,1422.24 2025.89,1422.3 2027.95,1422.35 2030.01,1422.4 2032.06,1422.45 2034.12,1422.5 2036.17,1422.54 2038.23,1422.58 2040.29,1422.62 2042.34,1422.65 2044.4,1422.68 2046.46,1422.72 2048.51,1422.75 2050.57,1422.77 2052.62,1422.8 2054.68,1422.82 2056.74,1422.85 2058.79,1422.87 2060.85,1422.89 2062.9,1422.91 2064.96,1422.93 2067.02,1422.94 2069.07,1422.96 2071.13,1422.97 2073.18,1422.99 2075.24,1423 2077.3,1423.01 2079.35,1423.02 2081.41,1423.03 2083.47,1423.04 2085.52,1423.05 2087.58,1423.06 2089.63,1423.07 2091.69,1423.08 2093.75,1423.08 2095.8,1423.09 2097.86,1423.1 2099.91,1423.1 2101.97,1423.11 2104.03,1423.11 2106.08,1423.12 2108.14,1423.12 2110.2,1423.13 2112.25,1423.13 2114.31,1423.13 2116.36,1423.14 2118.42,1423.14 2120.48,1423.14 2122.53,1423.15 2124.59,1423.15 2126.64,1423.15 2128.7,1423.15 2130.76,1423.15 2132.81,1423.16 2134.87,1423.16 2136.92,1423.16 2138.98,1423.16 2141.04,1423.16 2143.09,1423.16 2145.15,1423.17 2147.21,1423.17 2149.26,1423.17 2151.32,1423.17 2153.37,1423.17 2155.43,1423.17 2157.49,1423.17 2159.54,1423.17 2161.6,1423.17 2163.65,1423.17 2165.71,1423.17 2167.77,1423.17 2169.82,1423.17 2171.88,1423.17 2173.93,1423.18 2175.99,1423.18 2178.05,1423.18 2180.1,1423.18 2182.16,1423.18 2184.22,1423.18 2186.27,1423.18 2188.33,1423.18 2190.38,1423.18 2192.44,1423.18 2194.5,1423.18 2196.55,1423.18 2198.61,1423.18 2200.66,1423.18 2202.72,1423.18 2204.78,1423.18 2206.83,1423.18 2208.89,1423.18 2210.95,1423.18 2213,1423.18 2215.06,1423.18 2217.11,1423.18 2219.17,1423.18 2221.23,1423.18 2223.28,1423.18 2225.34,1423.18 2227.39,1423.18 2229.45,1423.18 2231.51,1423.18 2233.56,1423.18 2235.62,1423.18 2237.67,1423.18 2239.73,1423.18 2241.79,1423.18 2243.84,1423.18 2245.9,1423.18 2247.96,1423.18 2250.01,1423.18 2252.07,1423.18 2254.12,1423.18 2256.18,1423.18 2258.24,1423.18 2260.29,1423.18 2262.35,1423.18 2264.4,1423.18 2266.46,1423.18 2268.52,1423.18 2270.57,1423.18 2272.63,1423.18 2274.68,1423.18 2276.74,1423.18 2278.8,1423.18 2280.85,1423.18 2282.91,1423.18 2284.97,1423.18 2287.02,1423.18 2289.08,1423.18 2291.13,1423.18 "/>
<polyline clip-path="url(#clip192)" style="stroke:#000000; stroke-linecap:round; stroke-linejoin:round; stroke-width:4; stroke-opacity:0.5; fill:none" stroke-dasharray="16, 10" points="1264.1,2722.89 1264.1,-1176.24 "/>
<path clip-path="url(#clip190)" d="M1595.07 322.316 L2280.18 322.316 L2280.18 166.796 L1595.07 166.796  Z" fill="#ffffff" fill-rule="evenodd" fill-opacity="1"/>
<polyline clip-path="url(#clip190)" style="stroke:#000000; stroke-linecap:round; stroke-linejoin:round; stroke-width:4; stroke-opacity:1; fill:none" points="1595.07,322.316 2280.18,322.316 2280.18,166.796 1595.07,166.796 1595.07,322.316 "/>
<path clip-path="url(#clip190)" d="M1619.26 239.372 L1764.41 239.372 L1764.41 197.9 L1619.26 197.9 L1619.26 239.372  Z" fill="#009af9" fill-rule="evenodd" fill-opacity="1"/>
<polyline clip-path="url(#clip190)" style="stroke:#000000; stroke-linecap:round; stroke-linejoin:round; stroke-width:4; stroke-opacity:1; fill:none" points="1619.26,239.372 1764.41,239.372 1764.41,197.9 1619.26,197.9 1619.26,239.372 "/>
<path clip-path="url(#clip190)" d="M1788.6 201.356 L1793.28 201.356 L1793.28 215.522 L1810.27 215.522 L1810.27 201.356 L1814.95 201.356 L1814.95 235.916 L1810.27 235.916 L1810.27 219.457 L1793.28 219.457 L1793.28 235.916 L1788.6 235.916 L1788.6 201.356 Z" fill="#000000" fill-rule="nonzero" fill-opacity="1" /><path clip-path="url(#clip190)" d="M1824.25 201.356 L1831.22 201.356 L1840.04 224.874 L1848.91 201.356 L1855.87 201.356 L1855.87 235.916 L1851.31 235.916 L1851.31 205.569 L1842.4 229.272 L1837.7 229.272 L1828.79 205.569 L1828.79 235.916 L1824.25 235.916 L1824.25 201.356 Z" fill="#000000" fill-rule="nonzero" fill-opacity="1" /><path clip-path="url(#clip190)" d="M1891.03 204.018 L1891.03 208.948 Q1888.67 206.749 1885.99 205.661 Q1883.33 204.573 1880.32 204.573 Q1874.39 204.573 1871.24 208.208 Q1868.1 211.819 1868.1 218.67 Q1868.1 225.499 1871.24 229.133 Q1874.39 232.744 1880.32 232.744 Q1883.33 232.744 1885.99 231.656 Q1888.67 230.569 1891.03 228.369 L1891.03 233.254 Q1888.58 234.92 1885.83 235.754 Q1883.1 236.587 1880.04 236.587 Q1872.19 236.587 1867.68 231.795 Q1863.16 226.981 1863.16 218.67 Q1863.16 210.337 1867.68 205.546 Q1872.19 200.731 1880.04 200.731 Q1883.14 200.731 1885.87 201.564 Q1888.63 202.374 1891.03 204.018 Z" fill="#000000" fill-rule="nonzero" fill-opacity="1" /><path clip-path="url(#clip190)" d="M1923.37 199.944 Q1920.27 205.268 1918.77 210.476 Q1917.26 215.684 1917.26 221.032 Q1917.26 226.379 1918.77 231.633 Q1920.29 236.865 1923.37 242.166 L1919.67 242.166 Q1916.2 236.726 1914.46 231.471 Q1912.75 226.217 1912.75 221.032 Q1912.75 215.87 1914.46 210.638 Q1916.17 205.407 1919.67 199.944 L1923.37 199.944 Z" fill="#000000" fill-rule="nonzero" fill-opacity="1" /><path clip-path="url(#clip190)" d="M1946.4 217.282 Q1949.76 217.999 1951.64 220.268 Q1953.53 222.536 1953.53 225.869 Q1953.53 230.985 1950.02 233.786 Q1946.5 236.587 1940.02 236.587 Q1937.84 236.587 1935.53 236.147 Q1933.23 235.731 1930.78 234.874 L1930.78 230.36 Q1932.72 231.494 1935.04 232.073 Q1937.35 232.652 1939.88 232.652 Q1944.28 232.652 1946.57 230.916 Q1948.88 229.18 1948.88 225.869 Q1948.88 222.814 1946.73 221.101 Q1944.6 219.365 1940.78 219.365 L1936.75 219.365 L1936.75 215.522 L1940.97 215.522 Q1944.41 215.522 1946.24 214.157 Q1948.07 212.768 1948.07 210.175 Q1948.07 207.513 1946.17 206.101 Q1944.3 204.666 1940.78 204.666 Q1938.86 204.666 1936.66 205.083 Q1934.46 205.499 1931.82 206.379 L1931.82 202.212 Q1934.48 201.471 1936.8 201.101 Q1939.14 200.731 1941.2 200.731 Q1946.52 200.731 1949.62 203.161 Q1952.72 205.569 1952.72 209.689 Q1952.72 212.559 1951.08 214.55 Q1949.44 216.518 1946.4 217.282 Z" fill="#000000" fill-rule="nonzero" fill-opacity="1" /><path clip-path="url(#clip190)" d="M1975.25 205.43 L1963.44 223.879 L1975.25 223.879 L1975.25 205.43 M1974.02 201.356 L1979.9 201.356 L1979.9 223.879 L1984.83 223.879 L1984.83 227.768 L1979.9 227.768 L1979.9 235.916 L1975.25 235.916 L1975.25 227.768 L1959.65 227.768 L1959.65 223.254 L1974.02 201.356 Z" fill="#000000" fill-rule="nonzero" fill-opacity="1" /><path clip-path="url(#clip190)" d="M1992.56 230.036 L1997.45 230.036 L1997.45 235.916 L1992.56 235.916 L1992.56 230.036 Z" fill="#000000" fill-rule="nonzero" fill-opacity="1" /><path clip-path="url(#clip190)" d="M2007.68 201.356 L2026.03 201.356 L2026.03 205.291 L2011.96 205.291 L2011.96 213.763 Q2012.98 213.416 2014 213.254 Q2015.02 213.069 2016.03 213.069 Q2021.82 213.069 2025.2 216.24 Q2028.58 219.411 2028.58 224.828 Q2028.58 230.406 2025.11 233.508 Q2021.64 236.587 2015.32 236.587 Q2013.14 236.587 2010.87 236.217 Q2008.63 235.846 2006.22 235.106 L2006.22 230.406 Q2008.3 231.541 2010.52 232.096 Q2012.75 232.652 2015.22 232.652 Q2019.23 232.652 2021.57 230.545 Q2023.9 228.439 2023.9 224.828 Q2023.9 221.217 2021.57 219.11 Q2019.23 217.004 2015.22 217.004 Q2013.35 217.004 2011.47 217.42 Q2009.62 217.837 2007.68 218.717 L2007.68 201.356 Z" fill="#000000" fill-rule="nonzero" fill-opacity="1" /><path clip-path="url(#clip190)" d="M2068.79 210.754 L2068.79 214.782 Q2066.98 213.856 2065.04 213.393 Q2063.09 212.93 2061.01 212.93 Q2057.84 212.93 2056.24 213.902 Q2054.67 214.874 2054.67 216.819 Q2054.67 218.3 2055.8 219.157 Q2056.94 219.99 2060.36 220.754 L2061.82 221.078 Q2066.36 222.05 2068.26 223.832 Q2070.18 225.592 2070.18 228.763 Q2070.18 232.374 2067.31 234.481 Q2064.46 236.587 2059.46 236.587 Q2057.38 236.587 2055.11 236.17 Q2052.86 235.777 2050.36 234.967 L2050.36 230.569 Q2052.72 231.795 2055.02 232.42 Q2057.31 233.022 2059.55 233.022 Q2062.56 233.022 2064.18 232.004 Q2065.8 230.962 2065.8 229.087 Q2065.8 227.351 2064.62 226.425 Q2063.46 225.499 2059.51 224.643 L2058.02 224.295 Q2054.07 223.462 2052.31 221.749 Q2050.55 220.013 2050.55 217.004 Q2050.55 213.346 2053.14 211.356 Q2055.73 209.365 2060.5 209.365 Q2062.86 209.365 2064.95 209.712 Q2067.03 210.059 2068.79 210.754 Z" fill="#000000" fill-rule="nonzero" fill-opacity="1" /><path clip-path="url(#clip190)" d="M2099.14 221.888 L2099.14 223.971 L2079.55 223.971 Q2079.83 228.369 2082.19 230.684 Q2084.58 232.976 2088.81 232.976 Q2091.27 232.976 2093.56 232.374 Q2095.87 231.772 2098.14 230.569 L2098.14 234.596 Q2095.85 235.568 2093.44 236.078 Q2091.03 236.587 2088.56 236.587 Q2082.35 236.587 2078.72 232.976 Q2075.11 229.365 2075.11 223.207 Q2075.11 216.842 2078.53 213.115 Q2081.98 209.365 2087.82 209.365 Q2093.05 209.365 2096.08 212.745 Q2099.14 216.101 2099.14 221.888 M2094.88 220.638 Q2094.83 217.143 2092.91 215.059 Q2091.01 212.976 2087.86 212.976 Q2084.3 212.976 2082.14 214.99 Q2080.02 217.004 2079.69 220.661 L2094.88 220.638 Z" fill="#000000" fill-rule="nonzero" fill-opacity="1" /><path clip-path="url(#clip190)" d="M2124.78 210.985 L2124.78 214.967 Q2122.98 213.971 2121.15 213.485 Q2119.34 212.976 2117.49 212.976 Q2113.35 212.976 2111.06 215.615 Q2108.77 218.231 2108.77 222.976 Q2108.77 227.721 2111.06 230.36 Q2113.35 232.976 2117.49 232.976 Q2119.34 232.976 2121.15 232.49 Q2122.98 231.981 2124.78 230.985 L2124.78 234.92 Q2123 235.754 2121.08 236.17 Q2119.18 236.587 2117.03 236.587 Q2111.17 236.587 2107.72 232.906 Q2104.27 229.226 2104.27 222.976 Q2104.27 216.633 2107.75 212.999 Q2111.24 209.365 2117.31 209.365 Q2119.27 209.365 2121.15 209.782 Q2123.02 210.175 2124.78 210.985 Z" fill="#000000" fill-rule="nonzero" fill-opacity="1" /><path clip-path="url(#clip190)" d="M2142.24 212.976 Q2138.81 212.976 2136.82 215.661 Q2134.83 218.323 2134.83 222.976 Q2134.83 227.629 2136.8 230.314 Q2138.79 232.976 2142.24 232.976 Q2145.64 232.976 2147.63 230.291 Q2149.62 227.606 2149.62 222.976 Q2149.62 218.37 2147.63 215.684 Q2145.64 212.976 2142.24 212.976 M2142.24 209.365 Q2147.79 209.365 2150.96 212.976 Q2154.14 216.587 2154.14 222.976 Q2154.14 229.342 2150.96 232.976 Q2147.79 236.587 2142.24 236.587 Q2136.66 236.587 2133.49 232.976 Q2130.34 229.342 2130.34 222.976 Q2130.34 216.587 2133.49 212.976 Q2136.66 209.365 2142.24 209.365 Z" fill="#000000" fill-rule="nonzero" fill-opacity="1" /><path clip-path="url(#clip190)" d="M2182.75 220.268 L2182.75 235.916 L2178.49 235.916 L2178.49 220.407 Q2178.49 216.726 2177.05 214.897 Q2175.62 213.069 2172.75 213.069 Q2169.3 213.069 2167.31 215.268 Q2165.32 217.467 2165.32 221.263 L2165.32 235.916 L2161.03 235.916 L2161.03 209.99 L2165.32 209.99 L2165.32 214.018 Q2166.84 211.68 2168.9 210.522 Q2170.99 209.365 2173.7 209.365 Q2178.16 209.365 2180.45 212.143 Q2182.75 214.897 2182.75 220.268 Z" fill="#000000" fill-rule="nonzero" fill-opacity="1" /><path clip-path="url(#clip190)" d="M2208.3 213.925 L2208.3 199.897 L2212.56 199.897 L2212.56 235.916 L2208.3 235.916 L2208.3 232.027 Q2206.96 234.342 2204.9 235.476 Q2202.86 236.587 2199.99 236.587 Q2195.29 236.587 2192.33 232.837 Q2189.39 229.087 2189.39 222.976 Q2189.39 216.865 2192.33 213.115 Q2195.29 209.365 2199.99 209.365 Q2202.86 209.365 2204.9 210.499 Q2206.96 211.61 2208.3 213.925 M2193.79 222.976 Q2193.79 227.675 2195.71 230.36 Q2197.65 233.022 2201.03 233.022 Q2204.41 233.022 2206.36 230.36 Q2208.3 227.675 2208.3 222.976 Q2208.3 218.277 2206.36 215.615 Q2204.41 212.93 2201.03 212.93 Q2197.65 212.93 2195.71 215.615 Q2193.79 218.277 2193.79 222.976 Z" fill="#000000" fill-rule="nonzero" fill-opacity="1" /><path clip-path="url(#clip190)" d="M2237.86 210.754 L2237.86 214.782 Q2236.06 213.856 2234.11 213.393 Q2232.17 212.93 2230.08 212.93 Q2226.91 212.93 2225.32 213.902 Q2223.74 214.874 2223.74 216.819 Q2223.74 218.3 2224.88 219.157 Q2226.01 219.99 2229.44 220.754 L2230.89 221.078 Q2235.43 222.05 2237.33 223.832 Q2239.25 225.592 2239.25 228.763 Q2239.25 232.374 2236.38 234.481 Q2233.53 236.587 2228.53 236.587 Q2226.45 236.587 2224.18 236.17 Q2221.94 235.777 2219.44 234.967 L2219.44 230.569 Q2221.8 231.795 2224.09 232.42 Q2226.38 233.022 2228.63 233.022 Q2231.63 233.022 2233.26 232.004 Q2234.88 230.962 2234.88 229.087 Q2234.88 227.351 2233.69 226.425 Q2232.54 225.499 2228.58 224.643 L2227.1 224.295 Q2223.14 223.462 2221.38 221.749 Q2219.62 220.013 2219.62 217.004 Q2219.62 213.346 2222.21 211.356 Q2224.81 209.365 2229.57 209.365 Q2231.94 209.365 2234.02 209.712 Q2236.1 210.059 2237.86 210.754 Z" fill="#000000" fill-rule="nonzero" fill-opacity="1" /><path clip-path="url(#clip190)" d="M2245.36 199.944 L2249.07 199.944 Q2252.54 205.407 2254.25 210.638 Q2255.99 215.87 2255.99 221.032 Q2255.99 226.217 2254.25 231.471 Q2252.54 236.726 2249.07 242.166 L2245.36 242.166 Q2248.44 236.865 2249.94 231.633 Q2251.47 226.379 2251.47 221.032 Q2251.47 215.684 2249.94 210.476 Q2248.44 205.268 2245.36 199.944 Z" fill="#000000" fill-rule="nonzero" fill-opacity="1" /><polyline clip-path="url(#clip190)" style="stroke:#e26f46; stroke-linecap:round; stroke-linejoin:round; stroke-width:8; stroke-opacity:1; fill:none" points="1619.26,270.476 1764.41,270.476 "/>
<path clip-path="url(#clip190)" d="M1788.6 253.196 L1795.57 253.196 L1804.39 276.714 L1813.26 253.196 L1820.22 253.196 L1820.22 287.756 L1815.66 287.756 L1815.66 257.409 L1806.75 281.112 L1802.05 281.112 L1793.14 257.409 L1793.14 287.756 L1788.6 287.756 L1788.6 253.196 Z" fill="#000000" fill-rule="nonzero" fill-opacity="1" /><path clip-path="url(#clip190)" d="M1828.97 253.196 L1833.67 253.196 L1833.67 274.191 Q1833.67 279.747 1835.69 282.2 Q1837.7 284.631 1842.22 284.631 Q1846.71 284.631 1848.72 282.2 Q1850.73 279.747 1850.73 274.191 L1850.73 253.196 L1855.43 253.196 L1855.43 274.77 Q1855.43 281.529 1852.08 284.978 Q1848.74 288.427 1842.22 288.427 Q1835.66 288.427 1832.31 284.978 Q1828.97 281.529 1828.97 274.77 L1828.97 253.196 Z" fill="#000000" fill-rule="nonzero" fill-opacity="1" /><path clip-path="url(#clip190)" d="M1884.92 254.33 L1884.92 258.89 Q1882.26 257.617 1879.9 256.992 Q1877.54 256.367 1875.34 256.367 Q1871.52 256.367 1869.44 257.848 Q1867.38 259.33 1867.38 262.061 Q1867.38 264.353 1868.74 265.534 Q1870.13 266.691 1873.97 267.409 L1876.8 267.987 Q1882.03 268.983 1884.51 271.506 Q1887.01 274.006 1887.01 278.219 Q1887.01 283.242 1883.63 285.834 Q1880.27 288.427 1873.77 288.427 Q1871.31 288.427 1868.53 287.871 Q1865.78 287.316 1862.82 286.228 L1862.82 281.413 Q1865.66 283.01 1868.4 283.821 Q1871.13 284.631 1873.77 284.631 Q1877.77 284.631 1879.95 283.057 Q1882.12 281.483 1882.12 278.566 Q1882.12 276.02 1880.55 274.584 Q1879 273.149 1875.43 272.432 L1872.59 271.876 Q1867.35 270.835 1865.02 268.612 Q1862.68 266.39 1862.68 262.432 Q1862.68 257.848 1865.9 255.21 Q1869.14 252.571 1874.81 252.571 Q1877.24 252.571 1879.76 253.011 Q1882.28 253.45 1884.92 254.33 Z" fill="#000000" fill-rule="nonzero" fill-opacity="1" /><path clip-path="url(#clip190)" d="M1894.3 253.196 L1916.15 253.196 L1916.15 257.131 L1898.97 257.131 L1898.97 267.362 L1915.43 267.362 L1915.43 271.297 L1898.97 271.297 L1898.97 283.821 L1916.57 283.821 L1916.57 287.756 L1894.3 287.756 L1894.3 253.196 Z" fill="#000000" fill-rule="nonzero" fill-opacity="1" /><path clip-path="url(#clip190)" d="M1949.37 251.784 Q1946.27 257.108 1944.76 262.316 Q1943.26 267.524 1943.26 272.872 Q1943.26 278.219 1944.76 283.473 Q1946.29 288.705 1949.37 294.006 L1945.66 294.006 Q1942.19 288.566 1940.46 283.311 Q1938.74 278.057 1938.74 272.872 Q1938.74 267.71 1940.46 262.478 Q1942.17 257.247 1945.66 251.784 L1949.37 251.784 Z" fill="#000000" fill-rule="nonzero" fill-opacity="1" /><path clip-path="url(#clip190)" d="M1962.26 283.821 L1978.58 283.821 L1978.58 287.756 L1956.64 287.756 L1956.64 283.821 Q1959.3 281.066 1963.88 276.436 Q1968.49 271.784 1969.67 270.441 Q1971.91 267.918 1972.79 266.182 Q1973.7 264.423 1973.7 262.733 Q1973.7 259.978 1971.75 258.242 Q1969.83 256.506 1966.73 256.506 Q1964.53 256.506 1962.08 257.27 Q1959.65 258.034 1956.87 259.585 L1956.87 254.862 Q1959.69 253.728 1962.15 253.149 Q1964.6 252.571 1966.64 252.571 Q1972.01 252.571 1975.2 255.256 Q1978.4 257.941 1978.4 262.432 Q1978.4 264.561 1977.59 266.483 Q1976.8 268.381 1974.69 270.973 Q1974.11 271.645 1971.01 274.862 Q1967.91 278.057 1962.26 283.821 Z" fill="#000000" fill-rule="nonzero" fill-opacity="1" /><path clip-path="url(#clip190)" d="M1988.4 281.876 L1993.28 281.876 L1993.28 287.756 L1988.4 287.756 L1988.4 281.876 Z" fill="#000000" fill-rule="nonzero" fill-opacity="1" /><path clip-path="url(#clip190)" d="M2017.63 269.122 Q2020.99 269.839 2022.86 272.108 Q2024.76 274.376 2024.76 277.709 Q2024.76 282.825 2021.24 285.626 Q2017.72 288.427 2011.24 288.427 Q2009.07 288.427 2006.75 287.987 Q2004.46 287.571 2002.01 286.714 L2002.01 282.2 Q2003.95 283.334 2006.27 283.913 Q2008.58 284.492 2011.1 284.492 Q2015.5 284.492 2017.79 282.756 Q2020.11 281.02 2020.11 277.709 Q2020.11 274.654 2017.96 272.941 Q2015.83 271.205 2012.01 271.205 L2007.98 271.205 L2007.98 267.362 L2012.19 267.362 Q2015.64 267.362 2017.47 265.997 Q2019.3 264.608 2019.3 262.015 Q2019.3 259.353 2017.4 257.941 Q2015.52 256.506 2012.01 256.506 Q2010.09 256.506 2007.89 256.923 Q2005.69 257.339 2003.05 258.219 L2003.05 254.052 Q2005.71 253.311 2008.02 252.941 Q2010.36 252.571 2012.42 252.571 Q2017.75 252.571 2020.85 255.001 Q2023.95 257.409 2023.95 261.529 Q2023.95 264.399 2022.31 266.39 Q2020.66 268.358 2017.63 269.122 Z" fill="#000000" fill-rule="nonzero" fill-opacity="1" /><path clip-path="url(#clip190)" d="M2064.62 262.594 L2064.62 266.622 Q2062.82 265.696 2060.87 265.233 Q2058.93 264.77 2056.84 264.77 Q2053.67 264.77 2052.08 265.742 Q2050.5 266.714 2050.5 268.659 Q2050.5 270.14 2051.64 270.997 Q2052.77 271.83 2056.2 272.594 L2057.65 272.918 Q2062.19 273.89 2064.09 275.672 Q2066.01 277.432 2066.01 280.603 Q2066.01 284.214 2063.14 286.321 Q2060.29 288.427 2055.29 288.427 Q2053.21 288.427 2050.94 288.01 Q2048.7 287.617 2046.2 286.807 L2046.2 282.409 Q2048.56 283.635 2050.85 284.26 Q2053.14 284.862 2055.39 284.862 Q2058.4 284.862 2060.02 283.844 Q2061.64 282.802 2061.64 280.927 Q2061.64 279.191 2060.46 278.265 Q2059.3 277.339 2055.34 276.483 L2053.86 276.135 Q2049.9 275.302 2048.14 273.589 Q2046.38 271.853 2046.38 268.844 Q2046.38 265.186 2048.97 263.196 Q2051.57 261.205 2056.33 261.205 Q2058.7 261.205 2060.78 261.552 Q2062.86 261.899 2064.62 262.594 Z" fill="#000000" fill-rule="nonzero" fill-opacity="1" /><path clip-path="url(#clip190)" d="M2094.97 273.728 L2094.97 275.811 L2075.39 275.811 Q2075.66 280.209 2078.02 282.524 Q2080.41 284.816 2084.64 284.816 Q2087.1 284.816 2089.39 284.214 Q2091.71 283.612 2093.97 282.409 L2093.97 286.436 Q2091.68 287.408 2089.27 287.918 Q2086.87 288.427 2084.39 288.427 Q2078.19 288.427 2074.55 284.816 Q2070.94 281.205 2070.94 275.047 Q2070.94 268.682 2074.37 264.955 Q2077.82 261.205 2083.65 261.205 Q2088.88 261.205 2091.91 264.585 Q2094.97 267.941 2094.97 273.728 M2090.71 272.478 Q2090.66 268.983 2088.74 266.899 Q2086.84 264.816 2083.7 264.816 Q2080.13 264.816 2077.98 266.83 Q2075.85 268.844 2075.52 272.501 L2090.71 272.478 Z" fill="#000000" fill-rule="nonzero" fill-opacity="1" /><path clip-path="url(#clip190)" d="M2120.62 262.825 L2120.62 266.807 Q2118.81 265.811 2116.98 265.325 Q2115.18 264.816 2113.33 264.816 Q2109.18 264.816 2106.89 267.455 Q2104.6 270.071 2104.6 274.816 Q2104.6 279.561 2106.89 282.2 Q2109.18 284.816 2113.33 284.816 Q2115.18 284.816 2116.98 284.33 Q2118.81 283.821 2120.62 282.825 L2120.62 286.76 Q2118.83 287.594 2116.91 288.01 Q2115.02 288.427 2112.86 288.427 Q2107.01 288.427 2103.56 284.746 Q2100.11 281.066 2100.11 274.816 Q2100.11 268.473 2103.58 264.839 Q2107.08 261.205 2113.14 261.205 Q2115.11 261.205 2116.98 261.622 Q2118.86 262.015 2120.62 262.825 Z" fill="#000000" fill-rule="nonzero" fill-opacity="1" /><path clip-path="url(#clip190)" d="M2138.07 264.816 Q2134.64 264.816 2132.65 267.501 Q2130.66 270.163 2130.66 274.816 Q2130.66 279.469 2132.63 282.154 Q2134.62 284.816 2138.07 284.816 Q2141.47 284.816 2143.46 282.131 Q2145.45 279.446 2145.45 274.816 Q2145.45 270.21 2143.46 267.524 Q2141.47 264.816 2138.07 264.816 M2138.07 261.205 Q2143.63 261.205 2146.8 264.816 Q2149.97 268.427 2149.97 274.816 Q2149.97 281.182 2146.8 284.816 Q2143.63 288.427 2138.07 288.427 Q2132.49 288.427 2129.32 284.816 Q2126.17 281.182 2126.17 274.816 Q2126.17 268.427 2129.32 264.816 Q2132.49 261.205 2138.07 261.205 Z" fill="#000000" fill-rule="nonzero" fill-opacity="1" /><path clip-path="url(#clip190)" d="M2178.58 272.108 L2178.58 287.756 L2174.32 287.756 L2174.32 272.247 Q2174.32 268.566 2172.89 266.737 Q2171.45 264.909 2168.58 264.909 Q2165.13 264.909 2163.14 267.108 Q2161.15 269.307 2161.15 273.103 L2161.15 287.756 L2156.87 287.756 L2156.87 261.83 L2161.15 261.83 L2161.15 265.858 Q2162.68 263.52 2164.74 262.362 Q2166.82 261.205 2169.53 261.205 Q2174 261.205 2176.29 263.983 Q2178.58 266.737 2178.58 272.108 Z" fill="#000000" fill-rule="nonzero" fill-opacity="1" /><path clip-path="url(#clip190)" d="M2204.13 265.765 L2204.13 251.737 L2208.39 251.737 L2208.39 287.756 L2204.13 287.756 L2204.13 283.867 Q2202.79 286.182 2200.73 287.316 Q2198.7 288.427 2195.82 288.427 Q2191.13 288.427 2188.16 284.677 Q2185.22 280.927 2185.22 274.816 Q2185.22 268.705 2188.16 264.955 Q2191.13 261.205 2195.82 261.205 Q2198.7 261.205 2200.73 262.339 Q2202.79 263.45 2204.13 265.765 M2189.62 274.816 Q2189.62 279.515 2191.54 282.2 Q2193.49 284.862 2196.87 284.862 Q2200.25 284.862 2202.19 282.2 Q2204.13 279.515 2204.13 274.816 Q2204.13 270.117 2202.19 267.455 Q2200.25 264.77 2196.87 264.77 Q2193.49 264.77 2191.54 267.455 Q2189.62 270.117 2189.62 274.816 Z" fill="#000000" fill-rule="nonzero" fill-opacity="1" /><path clip-path="url(#clip190)" d="M2233.69 262.594 L2233.69 266.622 Q2231.89 265.696 2229.95 265.233 Q2228 264.77 2225.92 264.77 Q2222.75 264.77 2221.15 265.742 Q2219.57 266.714 2219.57 268.659 Q2219.57 270.14 2220.71 270.997 Q2221.84 271.83 2225.27 272.594 L2226.73 272.918 Q2231.26 273.89 2233.16 275.672 Q2235.08 277.432 2235.08 280.603 Q2235.08 284.214 2232.21 286.321 Q2229.37 288.427 2224.37 288.427 Q2222.28 288.427 2220.01 288.01 Q2217.77 287.617 2215.27 286.807 L2215.27 282.409 Q2217.63 283.635 2219.92 284.26 Q2222.21 284.862 2224.46 284.862 Q2227.47 284.862 2229.09 283.844 Q2230.71 282.802 2230.71 280.927 Q2230.71 279.191 2229.53 278.265 Q2228.37 277.339 2224.41 276.483 L2222.93 276.135 Q2218.97 275.302 2217.21 273.589 Q2215.45 271.853 2215.45 268.844 Q2215.45 265.186 2218.05 263.196 Q2220.64 261.205 2225.41 261.205 Q2227.77 261.205 2229.85 261.552 Q2231.94 261.899 2233.69 262.594 Z" fill="#000000" fill-rule="nonzero" fill-opacity="1" /><path clip-path="url(#clip190)" d="M2241.19 251.784 L2244.9 251.784 Q2248.37 257.247 2250.08 262.478 Q2251.82 267.71 2251.82 272.872 Q2251.82 278.057 2250.08 283.311 Q2248.37 288.566 2244.9 294.006 L2241.19 294.006 Q2244.27 288.705 2245.78 283.473 Q2247.31 278.219 2247.31 272.872 Q2247.31 267.524 2245.78 262.316 Q2244.27 257.108 2241.19 251.784 Z" fill="#000000" fill-rule="nonzero" fill-opacity="1" /></svg>
